<?xml version="1.0" encoding="UTF-8" standalone="no"?>
<!DOCTYPE svg PUBLIC "-//W3C//DTD SVG 1.1//EN" "http://www.w3.org/Graphics/SVG/1.1/DTD/svg11.dtd">
<svg width="100%" height="100%" viewBox="0 0 1184 309" version="1.1" xmlns="http://www.w3.org/2000/svg" xmlns:xlink="http://www.w3.org/1999/xlink" xml:space="preserve" xmlns:serif="http://www.serif.com/" style="fill-rule:evenodd;clip-rule:evenodd;stroke-linejoin:round;stroke-miterlimit:2;">
    <g transform="matrix(4.16667,0,0,4.16667,0,0)">
        <rect x="50.354" y="0.475" width="7.485" height="52.024" style="fill:rgb(199,76,76);fill-rule:nonzero;"/>
        <path d="M88.84,47.433C81.505,47.433 77.8,41.156 77.8,33.822C77.8,26.487 81.505,20.211 88.84,20.211C96.175,20.211 99.729,26.335 99.729,33.822C99.729,41.308 96.175,47.433 88.84,47.433ZM90.579,14.237C84,14.237 80.068,17.64 78.026,20.967L78.026,15.144L70.616,15.144L70.616,66.488L78.102,66.488L78.102,46.828C79.993,49.852 83.849,53.406 90.579,53.406C100.41,53.406 107.518,45.618 107.518,33.822C107.518,22.026 100.41,14.237 90.579,14.237Z" style="fill:rgb(199,76,76);fill-rule:nonzero;"/>
        <path d="M123.318,29.814C124.074,23.916 128.309,19.984 133.829,19.984C139.197,19.984 142.903,24.521 143.129,29.814L123.318,29.814ZM133.829,14.237C123.772,14.237 115.681,21.572 115.681,33.897C115.681,46.676 123.621,53.406 133.602,53.406C143.961,53.406 148.876,47.433 150.767,41.156L143.205,40.173C141.995,45.013 138.82,47.584 133.677,47.584C128.233,47.584 123.621,44.03 123.242,35.561L150.994,35.561L150.994,33.217C150.994,21.799 143.81,14.237 133.829,14.237Z" style="fill:rgb(199,76,76);fill-rule:nonzero;"/>
        <path d="M180.935,14.237C175.264,14.237 171.105,17.186 168.988,20.438L168.912,20.438L168.912,15.144L161.502,15.144L161.502,52.499L168.988,52.499L168.988,31.629C168.988,25.579 172.617,20.513 178.893,20.513C185.17,20.513 186.682,24.823 186.682,31.553L186.682,52.499L194.168,52.499L194.168,28.302C194.168,19.228 189.253,14.237 180.935,14.237Z" style="fill:rgb(199,76,76);fill-rule:nonzero;"/>
        <path d="M222.975,47.433C215.64,47.433 212.086,41.308 212.086,33.822C212.086,26.335 215.64,20.211 222.975,20.211C230.234,20.211 234.015,26.487 234.015,33.822C234.015,41.156 230.234,47.433 222.975,47.433ZM233.637,20.891C231.822,17.791 227.965,14.237 221.16,14.237C211.33,14.237 204.297,22.026 204.297,33.822C204.297,45.618 211.33,53.406 221.16,53.406C227.814,53.406 231.746,50.004 233.712,46.676L233.712,52.499L241.123,52.499L241.123,0.475L233.637,0.475L233.637,20.891Z" style="fill:rgb(199,76,76);fill-rule:nonzero;"/>
        <path d="M276.205,38.359C276.205,44.559 272.046,48.038 266.754,48.038C262.519,48.038 259.644,45.693 259.644,42.215C259.644,40.173 260.627,38.661 262.368,37.602C264.636,36.166 268.341,35.107 276.205,33.822L276.205,38.359ZM268.871,14.237C259.644,14.237 253.218,19.076 252.689,27.091L260.402,27.772C260.704,22.782 263.88,19.757 268.795,19.757C273.332,19.757 275.903,21.95 275.903,25.05C275.903,28.15 274.013,28.982 270.005,29.814L264.863,30.873C256.772,32.461 252.008,35.561 252.008,42.366C252.008,49.323 258.057,53.406 264.787,53.406C270.61,53.406 274.466,50.987 276.205,48.113L276.281,48.113L276.281,52.499L283.465,52.499L283.465,26.714C283.465,18.85 278.398,14.237 268.871,14.237Z" style="fill:rgb(199,76,76);fill-rule:nonzero;"/>
        <path d="M0,74L43.328,62.391L43.328,58.91L0,70.52L0,74Z" style="fill:rgb(199,76,76);fill-rule:nonzero;"/>
        <path d="M9.102,27.252C10.516,19.44 16.591,17.178 22.655,17.178C26.787,17.178 30.47,19.573 30.47,23.54C30.47,28.627 28.837,28.974 19.278,30.873C11.225,32.472 6.466,35.535 6.425,42.279L6.409,60.946C10.37,59.896 14.045,56.025 14.045,50.845C14.045,45.664 14.051,42.097 14.06,41.965C14.19,40.107 15.16,38.592 16.784,37.603C19.052,36.167 22.757,35.108 30.621,33.823C30.621,33.823 30.654,43.384 30.654,46.52C30.654,49.814 34.492,52.499 37.879,52.499L37.879,26.714C37.879,18.85 32.813,14.237 23.285,14.237C14.06,14.237 7.633,19.076 7.103,27.091L9.102,27.252Z" style="fill:rgb(199,76,76);fill-rule:nonzero;"/>
    </g>
</svg>
