<?xml version="1.0" encoding="UTF-8"?> <svg xmlns="http://www.w3.org/2000/svg" id="Calque_1" data-name="Calque 1" version="1.1" viewBox="0 0 1119.7 963.8"><defs><style> .cls-1 { fill: #fff; stroke-width: 0px; } </style></defs><g><path class="cls-1" d="M3,416.7c0-102.8,10.9-182.4,32.7-238.5s52.5-98.8,92.3-127.8C167.7,21.5,212.2,7,261.3,7s95,14.6,135.4,43.7,72.4,72.9,96,131.2,35.3,136.6,35.3,234.8-11.6,175.8-34.8,233.8-55.2,101.7-96,131.2-86.1,44.3-136,44.3-93.4-14.3-132.8-42.9c-39.4-28.6-70.2-71.3-92.3-128C14.1,598.3,3,518.9,3,416.7ZM76,418c0,88,7.8,154.5,23.2,199.5,15.5,45,38.4,79.2,68.7,102.5s62.4,35,96.2,35,66-11.4,95.6-34.2,52.1-57,67.4-102.5c19.2-55.5,28.8-122.2,28.8-200.3s-8.5-142.6-25.6-192.6c-17.1-50-40.7-86.5-70.8-109.7-30.2-23.1-62-34.7-95.4-34.7s-66.2,11.6-96.2,34.7c-30,23.1-52.8,57.2-68.5,102.3-15.7,45-23.5,111.7-23.5,200Z"></path><path class="cls-1" d="M686.9,271h-74c2.1-77,27.5-140.3,76.3-189.8,48.8-49.5,109-74.2,180.7-74.2s128.4,23.2,172.2,69.6c43.9,46.4,65.8,101.1,65.8,164.1s-10.5,85.8-31.5,124.5c-21,38.8-61.7,91.3-122.2,157.5l-192.7,210.3h356.4v74h-523l294.4-321.3c59.7-64.9,98.6-113,116.6-144.4,18-31.4,27-64.4,27-99.2s-16.2-81.8-48.5-113.5c-32.3-31.7-71.9-47.6-118.7-47.6s-90.3,16.6-122.9,49.9c-32.7,33.3-51.3,80-55.8,140.1Z"></path></g><g><path class="cls-1" d="M103.3,872.9v88.3h-11v-15.2c-4.7,5.8-10,10.1-15.8,13.1-5.8,2.9-12.2,4.4-19.1,4.4-12.3,0-22.8-4.5-31.5-13.6-8.7-9.1-13.1-20.1-13.1-33.1s4.4-23.6,13.2-32.6c8.8-9,19.4-13.5,31.7-13.5s13.6,1.5,19.4,4.6c5.8,3.1,10.9,7.7,15.2,13.9v-16.2h11ZM58.6,881.6c-6.2,0-12,1.6-17.2,4.7-5.3,3.1-9.5,7.5-12.6,13.1-3.1,5.6-4.7,11.6-4.7,17.8s1.6,12.2,4.7,17.8c3.1,5.7,7.4,10.1,12.7,13.2,5.3,3.2,11,4.7,17,4.7s11.9-1.6,17.4-4.7c5.5-3.1,9.7-7.4,12.7-12.7,3-5.3,4.4-11.4,4.4-18.1,0-10.2-3.3-18.7-9.9-25.6-6.6-6.9-14.8-10.3-24.5-10.3Z"></path><path class="cls-1" d="M145.5,872.9h11.4v12.9c3.4-5.1,7-8.9,10.8-11.4,3.8-2.5,7.7-3.8,11.8-3.8s6.4,1,9.9,3l-5.8,9.6c-2.3-1-4.3-1.5-5.9-1.5-3.7,0-7.3,1.6-10.8,4.7-3.5,3.1-6.1,7.9-7.9,14.5-1.4,5-2.1,15.2-2.1,30.5v29.9h-11.4v-88.3Z"></path><path class="cls-1" d="M303.6,891.2l-8.9,5.6c-7.7-10.3-18.1-15.5-31.4-15.5s-19.4,3.5-26.4,10.4c-7,6.9-10.5,15.3-10.5,25.2s1.6,12.5,4.8,18.1c3.2,5.7,7.6,10.1,13.3,13.2,5.6,3.1,11.9,4.7,18.9,4.7,12.8,0,23.2-5.2,31.3-15.5l8.9,5.9c-4.2,6.4-9.7,11.3-16.7,14.8-7,3.5-15,5.3-23.9,5.3-13.8,0-25.2-4.4-34.2-13.3-9.1-8.9-13.6-19.7-13.6-32.4s2.1-16.5,6.4-23.8c4.2-7.3,10.1-13,17.5-17.2,7.4-4.1,15.7-6.2,24.9-6.2s11.3.9,16.7,2.7c5.4,1.8,9.9,4.1,13.6,7,3.7,2.9,6.9,6.5,9.5,11Z"></path><path class="cls-1" d="M346.4,838.8h11.2v49.9c4.5-6.1,9.5-10.6,14.9-13.6,5.4-3,11.3-4.5,17.7-4.5s12.3,1.7,17.3,5c5,3.4,8.8,7.9,11.2,13.5,2.4,5.7,3.6,14.5,3.6,26.6v45.4h-11.2v-42.1c0-10.2-.4-17-1.2-20.4-1.4-5.8-3.9-10.2-7.6-13.2-3.7-2.9-8.4-4.4-14.3-4.4s-12.8,2.3-18.2,6.8-8.9,10.2-10.6,16.9c-1.1,4.3-1.6,12.3-1.6,24v32.4h-11.2v-122.3Z"></path><path class="cls-1" d="M471.4,836.5c2.5,0,4.7.9,6.5,2.8,1.8,1.8,2.7,4.1,2.7,6.7s-.9,4.7-2.7,6.6c-1.8,1.8-4,2.8-6.5,2.8s-4.6-.9-6.4-2.8c-1.8-1.8-2.7-4-2.7-6.6s.9-4.8,2.7-6.7c1.8-1.8,4-2.8,6.4-2.8ZM465.9,872.9h11.2v88.3h-11.2v-88.3Z"></path><path class="cls-1" d="M531.3,840.1h11.2v32.8h17.7v9.8h-17.7v78.4h-11.2v-78.4h-15.3v-9.8h15.3v-32.8Z"></path><path class="cls-1" d="M671.6,931.9l9.4,5c-3.1,6.2-6.7,11.1-10.7,14.9s-8.6,6.7-13.7,8.6c-5.1,2-10.8,3-17.2,3-14.2,0-25.3-4.7-33.3-14.2-8-9.4-12-20.1-12-32s3.4-21.2,10.2-29.9c8.6-11.1,20.1-16.7,34.5-16.7s26.7,5.7,35.5,17.1c6.3,8.1,9.5,18.1,9.6,30.2h-78.3c.2,10.3,3.4,18.7,9.7,25.2,6.2,6.6,14,9.8,23.1,9.8s8.7-.8,12.9-2.3c4.2-1.6,7.8-3.6,10.7-6.2,2.9-2.6,6.1-6.8,9.5-12.5ZM671.6,908.1c-1.5-6.1-3.7-10.9-6.5-14.5-2.9-3.6-6.6-6.5-11.3-8.8-4.7-2.2-9.6-3.3-14.8-3.3-8.5,0-15.9,2.8-22,8.4-4.5,4.1-7.9,10.1-10.2,18.3h64.8Z"></path><path class="cls-1" d="M810.5,891.2l-8.9,5.6c-7.7-10.3-18.1-15.5-31.4-15.5s-19.4,3.5-26.4,10.4-10.5,15.3-10.5,25.2,1.6,12.5,4.8,18.1c3.2,5.7,7.6,10.1,13.3,13.2s11.9,4.7,18.9,4.7c12.8,0,23.2-5.2,31.3-15.5l8.9,5.9c-4.2,6.4-9.7,11.3-16.7,14.8-7,3.5-15,5.3-23.9,5.3-13.8,0-25.2-4.4-34.2-13.3-9.1-8.9-13.6-19.7-13.6-32.4s2.1-16.5,6.4-23.8c4.2-7.3,10.1-13,17.5-17.2,7.4-4.1,15.7-6.2,24.9-6.2s11.3.9,16.7,2.7c5.4,1.8,9.9,4.1,13.6,7,3.7,2.9,6.9,6.5,9.5,11Z"></path><path class="cls-1" d="M863,840.1h11.2v32.8h17.7v9.8h-17.7v78.4h-11.2v-78.4h-15.3v-9.8h15.3v-32.8Z"></path><path class="cls-1" d="M1003.3,931.9l9.4,5c-3.1,6.2-6.7,11.1-10.7,14.9s-8.6,6.7-13.7,8.6c-5.1,2-10.8,3-17.2,3-14.2,0-25.3-4.7-33.3-14.2-8-9.4-12-20.1-12-32s3.4-21.2,10.2-29.9c8.6-11.1,20.1-16.7,34.5-16.7s26.7,5.7,35.5,17.1c6.3,8.1,9.5,18.1,9.6,30.2h-78.3c.2,10.3,3.4,18.7,9.7,25.2,6.2,6.6,14,9.8,23.1,9.8s8.7-.8,12.9-2.3c4.2-1.6,7.8-3.6,10.7-6.2,2.9-2.6,6.1-6.8,9.5-12.5ZM1003.3,908.1c-1.5-6.1-3.7-10.9-6.5-14.5-2.9-3.6-6.6-6.5-11.3-8.8-4.7-2.2-9.6-3.3-14.8-3.3-8.5,0-15.9,2.8-22,8.4-4.5,4.1-7.9,10.1-10.2,18.3h64.8Z"></path><path class="cls-1" d="M1101.4,882.5l-7.2,7.5c-6-5.9-11.8-8.8-17.6-8.8s-6.7,1.2-9.3,3.7c-2.6,2.4-3.9,5.3-3.9,8.5s1.1,5.6,3.2,8.2c2.1,2.6,6.6,5.8,13.5,9.3,8.3,4.4,14,8.6,17,12.7,2.9,4.1,4.4,8.7,4.4,13.9s-2.5,13.4-7.5,18.4c-5,5-11.3,7.5-18.8,7.5s-9.8-1.1-14.4-3.3c-4.6-2.2-8.3-5.3-11.3-9.2l7-8.1c5.7,6.5,11.8,9.8,18.2,9.8s8.3-1.5,11.5-4.4c3.2-2.9,4.7-6.4,4.7-10.3s-1-6.1-3.1-8.7c-2.1-2.5-6.8-5.6-14.1-9.4-7.9-4.1-13.2-8.2-16-12.2-2.8-4-4.2-8.6-4.2-13.7s2.3-12.3,6.8-16.7c4.5-4.4,10.2-6.7,17.1-6.7s16.1,4,24.2,11.9Z"></path></g></svg> 