<?xml version="1.0" encoding="UTF-8"?>
<svg id="Calque_1" xmlns="http://www.w3.org/2000/svg" version="1.1" viewBox="0 0 832.68 187.418">
  <!-- Generator: Adobe Illustrator 30.1.0, SVG Export Plug-In . SVG Version: 2.1.1 Build 136)  -->
  <defs>
    <style>
      .st0 {
        fill: #00873e;
      }
    </style>
  </defs>
  <g>
    <path class="st0" d="M608.854,9.547c6.288,0,10.832,4.539,10.832,10.816s-4.545,10.824-10.832,10.824-10.813-4.556-10.813-10.824,4.553-10.816,10.813-10.816"/>
    <path class="st0" d="M104.846,108.958c-14.613,0-18.312-2.493-18.312-12.324v-43.489c0-6.769,5.605-10.715,15.184-10.715h25.364c1.908,0,2.23.241,2.23,1.685v3.755c0,1.444-.322,1.699-2.23,1.699h-16.074c-3.996,0-4.304.098-5.09,1.522-.554.993-.63,1.659-.63,5.717v9.293c0,4.237.134,4.455,2.594,4.455h15.36c1.908,0,2.233.246,2.233,1.685v3.761c0,1.458-.325,1.687-2.233,1.687h-15.36c-2.46,0-2.594.227-2.594,4.477v12.324c0,4.038.067,4.598.63,5.709.705,1.405,1.086,1.528,5.09,1.528h18.128c1.911,0,2.236.243,2.236,1.69v3.845c0,1.447-.325,1.696-2.236,1.696h-24.29Z"/>
    <path class="st0" d="M160.301,79.671c-.694-1.38-1.178-2.605-1.178-3.022,0-.333.249-.395,1.441-.395l.77.014.375.017c6.932,0,12.411-6.632,12.411-15.01,0-8.91-4.726-13.815-13.298-13.815l-2.395.053c-1.035.02-1.715.146-1.908.322-.207.196-.322.87-.322,1.878l-.09,2.32v54.685c0,2.048-.19,2.241-2.236,2.241h-14.288c-2.046,0-2.227-.193-2.227-2.241v-62.062c0-1.794.434-2.227,2.227-2.227h20.38c14.697,0,17.473.383,23.845,3.277,5.695,2.6,8.832,7.754,8.832,14.487,0,8.219-4.858,14.487-13.046,16.832-.895.255-1.192.476-1.192.881,0,.288.101.621.299.957l1.131,1.928,13.161,22.988c1.95,3.425,2.046,3.613,2.046,4.293,0,.736-.677.887-3.89.887h-12.576c-1.164,0-1.995-.031-2.496-.09-.425-.053-.784-.21-1.005-.439-.048-.062-.445-.778-1.178-2.155l-1.34-2.496-10.785-21.256-1.466-2.852Z"/>
    <path class="st0" d="M260.856,96.04c0,2.882-.031,4.92-.084,6.126-.241,4.875-3.045,7.687-7.684,7.687-3.904,0-5.227-.996-9.355-7.041l-26.576-38.852-2.393-3.425c-.725-1.033-1.343-1.651-1.651-1.651-.411,0-.744.985-.744,2.205v45.63c0,2.048-.193,2.239-2.241,2.239h-6.243c-2.048,0-2.233-.19-2.233-2.239v-47.88c0-9.226.095-9.881,2.051-13.343,1.645-2.91,5.373-4.424,10.939-4.424,5.426,0,9.464,2.186,12.8,6.943l17.77,25.311c2.228,3.168,4.172,5.552,4.531,5.552.224,0,.403-.893.403-1.978v-32.245c0-1.794.442-2.225,2.228-2.225h6.257c1.78,0,2.227.431,2.227,2.225v51.386Z"/>
    <path class="st0" d="M355.163,79.671c-.7-1.38-1.178-2.605-1.178-3.022,0-.333.252-.395,1.438-.395l.778.014.369.017c6.932,0,12.411-6.632,12.411-15.01,0-8.91-4.729-13.815-13.301-13.815l-2.398.053c-1.033.02-1.713.146-1.908.322-.207.196-.316.87-.316,1.878l-.095,2.32v54.685c0,2.048-.187,2.241-2.233,2.241h-14.288c-2.04,0-2.233-.193-2.233-2.241v-62.062c0-1.794.453-2.227,2.233-2.227h20.38c14.7,0,17.476.383,23.842,3.277,5.697,2.6,8.84,7.754,8.84,14.487,0,8.219-4.864,14.487-13.043,16.832-.901.255-1.2.476-1.2.881,0,.288.101.621.299.957l1.125,1.928,13.161,22.988c1.962,3.425,2.06,3.613,2.06,4.293,0,.736-.683.887-3.895.887h-12.579c-1.159,0-2.001-.031-2.502-.09-.425-.053-.778-.21-.999-.439-.045-.062-.439-.778-1.17-2.155l-1.343-2.496-10.793-21.256-1.461-2.852Z"/>
    <path class="st0" d="M439.734,51.351c0-1.34-.095-2.188-.269-2.409-.411-.532-2.829-.809-7.069-.809-11.873,0-19.174,10.555-19.174,27.704,0,16.485,8.692,26.878,22.513,26.878,3.54,0,3.999-.406,3.999-3.498v-47.866ZM439.963,2.24c0-1.78.411-2.2,2.233-2.239h14.288c1.783,0,2.236.459,2.236,2.239v104.477c0,2.048-.193,2.241-2.236,2.241h-17.865c-17.453,0-21.866-.644-29.484-4.276-9.99-4.76-16.354-16.25-16.354-29.486,0-21.519,13.385-33.334,37.772-33.334,1.998,0,3.965.101,5.868.294.35.042.697.062,1.038.062,2.244,0,2.502-.33,2.502-3.095V2.24Z"/>
    <path class="st0" d="M283.218,79.928c-.221.784-.333,1.38-.333,1.777,0,.59.495.907,1.441.907h14.218c.94,0,1.444-.316,1.444-.907,0-.397-.112-.993-.339-1.777l-.714-2.493-5.233-18.038c-.82-2.835-1.419-3.837-2.289-3.837-.826,0-1.438,1.044-2.247,3.837l-5.233,18.038-.716,2.493ZM266.982,108.958c-.965,0-1.472-.355-1.472-1.027,0-.448.129-1.005.364-1.657.277-.725.546-1.573.803-2.496l12.486-44.382c.898-3.19,1.69-5.739,2.376-7.665,2.56-7.158,6.828-10.2,14.322-10.2,3.358,0,6.19.658,8.182,1.872,2.695,1.651,4.864,4.6,6.145,8.328.465,1.36,1.256,3.898,2.373,7.665l13.222,44.382c.33,1.105.596,1.95.803,2.496.238.652.364,1.209.364,1.657,0,.672-.507,1.027-1.472,1.027h-14.773c-1.945,0-2.423-.428-3.073-2.684l-.711-2.496-2.647-9.38c-.47-1.668-.719-2.56-.747-2.681-.49-1.908-1.052-2.493-2.412-2.493h-18.631c-1.354,0-1.925.585-2.407,2.493-.034.12-.28,1.013-.756,2.681l-2.642,9.38-.711,2.496c-.646,2.255-1.128,2.684-3.075,2.684h-5.913Z"/>
    <path class="st0" d="M24.111,51.56c0,1.189.241,2.046.627,2.295.101.073.937.126,2.412.176l5.183.179c11.935,0,19.432-7.066,19.432-18.307,0-11.415-7.491-19.264-18.721-19.644l-5.362-.171-.596-.008c-1.43,0-2.37.126-2.614.361-.229.218-.361.918-.361,1.962v33.158ZM24.111,98.827c0,2.25.554,2.807,2.776,2.807l.339-.006c.798-.034,2.919.073,6.355.277.702.045,1.391.062,2.074.062,13.648,0,20.235-6.266,20.235-19.225,0-8.381-3.56-15.425-9.663-19.135-3.291-1.995-6.282-2.519-14.481-2.519-1.917,0-3.621-.036-5.127-.123l-.425-.014c-.951,0-1.601.137-1.808.367-.176.193-.274,1.024-.274,2.309v35.201ZM32.061,9.383c31.417.21,44.757,7.514,44.757,24.533,0,10.094-6.8,19.325-15.64,21.276l-4.466.991c-.68.148-1.164.369-1.164.532s.445.381,1.077.532l4.105.988c12.044,2.874,19.854,12.285,19.854,23.912,0,9.694-5.381,18.617-13.608,22.535-7.76,3.725-12.956,4.276-39.731,4.276H2.236c-2.043,0-2.236-.19-2.236-2.239V11.521c0-1.785.451-2.23,2.236-2.23h16.074l13.751.092Z"/>
    <path class="st0" d="M602.42,108.958c-2.032,0-2.228-.193-2.228-2.216v-62.087c0-1.794.439-2.225,2.228-2.225h14.283c1.802,0,2.233.431,2.233,2.225v62.065c0,2.046-.176,2.239-2.233,2.239h-14.283Z"/>
    <path class="st0" d="M688.016,92.201c1.175.571,1.329.697,1.329,1.108,0,.767-.859,2.362-2.337,4.36-6.638,8.974-15.55,13.516-26.498,13.516-19.807,0-34.806-15.265-34.806-35.441s14.717-34.672,35.17-34.672c9.335,0,19.051,3.624,24.449,9.123,1.1,1.131,2.121,2.437,3.047,3.923.369.602.56,1.047.56,1.296,0,.327-.325.582-1.2.988-.173.078-.554.269-1.15.562l-2.723,1.335c-1.839.907-2.132,1.013-2.661,1.013-.554,0-.979-.42-1.699-1.676-2.913-5.009-10.309-9.053-16.594-9.053-10.673,0-17.017,10.463-17.017,28.107,0,16.161,6.657,26.123,17.439,26.123,7.038,0,14.028-4.545,17.255-11.21.641-1.324,1.128-1.855,1.673-1.855.294,0,.644.087,1.069.246l1.489.702,1.987.926,1.217.579Z"/>
    <path class="st0" d="M505.712,17.814c0-11.792,2.829-16.471,9.982-16.471,4.172,0,7.628,1.934,10.824,6.072l44.665,57.92,3.201,4.147c.884,1.136,1.578,1.805,1.886,1.805.243,0,.437-.96.437-2.155V2.241c0-1.78.439-2.241,2.233-2.241h8.924c1.794,0,2.233.462,2.233,2.241v91.979c0,4.077-.031,6.442-.087,7.057-.448,4.642-4.738,8.476-9.512,8.476-4.181,0-6.61-1.612-10.961-7.281l-44.704-58.371-3.585-4.802c-.674-.907-1.215-1.427-1.483-1.427-.369,0-.66.954-.66,2.138v66.707c0,2.048-.193,2.239-2.23,2.239h-8.935c-2.046,0-2.228-.19-2.228-2.239V17.814Z"/>
    <path class="st0" d="M709.815,77.032c0,15.248,7.281,27.11,16.619,27.11,8.549,0,16.018-13.746,16.018-29.483,0-14.759-7.337-26.344-16.701-26.344-9-.006-15.937,12.506-15.937,28.717M763.088,77.916c0,18.962-15.187,33.281-35.285,33.281-21.332,0-38.318-16.326-38.318-36.835,0-19.102,14.367-33.289,33.709-33.289,22.454,0,39.893,16.102,39.893,36.843"/>
    <path class="st0" d="M813.704,51.351c0-1.34-.098-2.188-.274-2.409-.411-.532-2.829-.809-7.069-.809-11.868,0-19.174,10.555-19.174,27.704,0,16.485,8.692,26.878,22.527,26.878,3.537,0,3.99-.406,3.99-3.498v-47.866ZM813.934,2.24c0-1.78.406-2.2,2.239-2.239h14.274c1.797,0,2.233.459,2.233,2.239v104.477c0,2.048-.182,2.241-2.233,2.241h-17.851c-17.465,0-21.878-.644-29.489-4.276-9.993-4.76-16.359-16.25-16.359-29.486,0-21.519,13.387-33.334,37.775-33.334,2.001,0,3.954.101,5.868.294.344.042.688.062,1.033.062,2.241,0,2.51-.33,2.51-3.095V2.24Z"/>
  </g>
  <g>
    <path class="st0" d="M269.067,134.291h14.864c9.91,0,14.148,5.134,14.148,19.938,0,15.461-1.97,22.684-15.163,22.684h-13.849v-42.621ZM279.096,169.511h2.686c4.658,0,6.269-1.85,6.269-14.625,0-10.387-.836-13.193-6.148-13.193h-2.806v27.817Z"/>
    <path class="st0" d="M311.509,162.348v1.969c0,5.015.715,7.462,3.521,7.462,2.507,0,3.284-1.85,3.523-5.909h8.953c-.179,7.999-4.536,11.879-12.534,11.879-12.178,0-13.134-8.537-13.134-18.146,0-9.075,2.627-15.82,13.134-15.82,11.998,0,12.833,7.581,12.833,18.566h-16.296ZM318.493,156.736c0-4.537-.597-6.984-3.284-6.984-3.164,0-3.7,2.627-3.7,6.984h6.984Z"/>
    <path class="st0" d="M331.624,144.618h9.312v3.941h.12c.717-2.209,2.686-4.776,6.984-4.776,6.506,0,9.969,4.656,9.969,16.714,0,10.029-1.432,17.252-9.372,17.252-2.686,0-5.61-.896-7.223-4.357h-.119v14.027h-9.671v-42.8ZM344.638,170.704c3.521,0,3.702-3.879,3.702-9.73,0-5.193-.12-10.148-3.762-10.148-2.865,0-3.461,3.463-3.461,9.73,0,5.731.239,10.148,3.521,10.148Z"/>
    <path class="st0" d="M388.215,176.913h-9.312v-3.82h-.12c-1.372,2.865-4.178,4.656-7.76,4.656-5.492,0-8.418-2.746-8.418-8.954v-24.176h9.671v22.027c0,2.328,1.014,3.702,2.806,3.702,1.85,0,3.461-1.432,3.461-4.596v-21.132h9.671v32.295Z"/>
    <path class="st0" d="M393.826,133.813h9.671v7.402h-9.671v-7.402ZM393.826,144.618h9.671v32.295h-9.671v-32.295Z"/>
    <path class="st0" d="M416.508,166.645c.06,1.434.18,2.687.657,3.642.538.896,1.434,1.492,2.985,1.492,2.269,0,3.463-1.432,3.463-3.282,0-1.492-.717-2.926-3.702-3.941-7.938-2.686-11.759-4.238-11.759-11.043,0-6.446,4.536-9.73,12.297-9.73,9.073,0,11.7,4.417,11.7,9.073v1.075h-8.597v-.597c0-2.806-1.133-3.581-3.164-3.581-2.567,0-3.282,1.253-3.282,2.985,0,5.731,15.461,1.91,15.461,14.446,0,6.506-4.358,10.566-12.357,10.566-8.655,0-12.297-3.224-12.297-9.67v-1.434h8.595Z"/>
    <path class="st0" d="M464.599,147.603h-8.119v-6.327h1.253c7.581,0,9.372-3.941,9.85-6.626h7.043v42.264h-10.027v-29.31Z"/>
    <path class="st0" d="M492.737,167.004c0,1.133.119,2.268.597,3.104s1.314,1.314,2.448,1.314c3.342,0,4.238-2.627,4.238-11.939h-.12c-1.314,2.567-3.939,3.702-7.521,3.702-6.447,0-10.149-3.642-10.149-13.132,0-8.418,2.687-15.402,13.849-15.402,12.476,0,13.968,7.94,13.968,20.594,0,14.088-1.014,22.505-14.684,22.505-7.582,0-12.178-3.164-12.298-10.744h9.671ZM499.661,149.035c0-4.954-.776-8.059-3.7-8.059-2.866,0-3.702,2.746-3.702,7.343,0,5.134.597,7.462,3.76,7.462,2.985,0,3.642-2.926,3.642-6.747Z"/>
    <path class="st0" d="M513.569,143.961v-8.476h26.922v7.462c-6.506,9.85-11.043,24.594-11.461,33.966h-10.387c.597-9.73,6.148-25.012,12.237-32.951h-17.311Z"/>
    <path class="st0" d="M544.609,143.961v-8.476h26.922v7.462c-6.506,9.85-11.043,24.594-11.461,33.966h-10.387c.597-9.73,6.148-25.012,12.237-32.951h-17.311Z"/>
  </g>
</svg>