<svg width="300" height="144" viewBox="0 0 300 144" fill="none" xmlns="http://www.w3.org/2000/svg">
<g clip-path="url(#clip0_4064_1951)">
<path d="M83.3314 48.8627C83.6112 48.0934 83.751 47.6738 83.7161 47.8136L83.8909 47.2891L84.1007 46.7646L84.4154 45.9603C85.2897 43.7223 86.3038 41.5192 87.4228 39.3861C91.4792 31.6229 97.0393 24.769 103.788 19.1739C108.369 15.3623 113.405 12.1801 118.825 9.69732C130.085 4.52189 142.569 2.52865 154.878 3.89245C160.648 4.55686 166.313 5.95562 171.733 8.08874C174.041 8.99794 176.314 10.047 178.517 11.201C179.077 11.4807 179.636 11.7955 180.161 12.1102C180.685 12.4249 181.245 12.7047 181.769 13.0544C182.294 13.3691 182.819 13.7188 183.343 14.0335C183.868 14.3482 184.392 14.6979 184.917 15.0826C193.764 21.1322 201.037 29.2101 206.108 38.6517C208.346 42.8131 210.129 47.1842 211.423 51.6952C213.277 52.0449 215.165 52.3247 217.053 52.6394C216.704 51.2756 216.284 49.8768 215.864 48.513C215.759 48.1633 215.655 47.8486 215.515 47.4989L215.165 46.4848L214.78 45.5057C214.64 45.0861 214.466 44.6664 214.291 44.2818C214.011 43.5824 213.696 42.848 213.382 42.1486C213.312 41.9738 213.242 41.799 213.137 41.6241L212.682 40.6799C211.913 39.0014 211.074 37.3928 210.129 35.7843C209.22 34.1757 208.241 32.6371 207.227 31.0984C206.213 29.5598 205.094 28.0911 203.975 26.6573C203.695 26.3076 203.415 25.923 203.101 25.5733L202.226 24.5242C201.632 23.8248 201.002 23.1604 200.373 22.496C195.407 17.0758 189.637 12.5298 183.238 8.928C170.509 1.82927 155.927 -1.14311 141.45 0.395535C133.023 1.30473 124.875 3.78754 117.356 7.73905C114.874 9.03291 112.461 10.4666 110.153 12.0752C107.6 13.8237 105.187 15.747 102.879 17.8102C102.285 18.3347 101.76 18.8592 101.201 19.3838C100.921 19.6285 100.641 19.9083 100.361 20.1881L99.9767 20.5727L99.5571 20.9923L98.7528 21.8316L97.9835 22.6709C97.7387 22.9506 97.4589 23.2304 97.2141 23.5101C96.9694 23.7899 96.6896 24.0696 96.4448 24.3843C95.2209 25.8181 94.0669 27.2868 92.9479 28.8254C91.8289 30.3641 90.8148 31.9027 89.8357 33.4763C88.6467 35.4346 87.5277 37.4978 86.5136 39.5609C85.4995 41.6241 84.6253 43.7223 83.8559 45.7854C82.8418 48.513 82.2124 51.2406 81.548 54.0731C81.7228 53.7234 81.8977 53.3737 81.9326 53.1989L82.2823 52.1148C82.4572 51.4854 82.632 50.856 82.8069 50.3314C83.0516 49.7369 83.1915 49.2823 83.3314 48.8627Z" fill="black"/>
<path d="M84.0658 94.4974C84.3455 95.2667 84.4854 95.6863 84.4504 95.5465L84.6253 96.071L84.8351 96.5955L85.1498 97.3998C86.024 99.6378 87.0381 101.841 88.1571 103.974C92.2136 111.737 97.7737 118.591 104.523 124.186C109.104 127.998 114.139 131.18 119.559 133.663C130.819 138.838 143.303 140.831 155.613 139.468C161.382 138.803 167.047 137.404 172.468 135.271C174.776 134.362 177.049 133.313 179.252 132.159C179.811 131.879 180.371 131.565 180.895 131.25C181.42 130.935 181.979 130.655 182.504 130.306C183.028 129.991 183.553 129.641 184.077 129.327C184.602 129.012 185.126 128.662 185.651 128.278C194.498 122.228 201.772 114.15 206.842 104.708C209.08 100.547 210.864 96.1759 212.158 91.6649C214.011 91.3152 215.899 91.0354 217.788 90.7207C217.438 92.0845 217.018 93.4833 216.599 94.8471C216.494 95.1968 216.389 95.5115 216.249 95.8612L215.899 96.8753L215.515 97.8544C215.375 98.274 215.2 98.6937 215.025 99.0783C214.745 99.7777 214.431 100.512 214.116 101.211C214.046 101.386 213.976 101.561 213.871 101.736L213.417 102.68C212.647 104.359 211.808 105.967 210.864 107.576C209.955 109.184 208.975 110.723 207.961 112.262C206.947 113.8 205.828 115.269 204.709 116.703C204.429 117.052 204.15 117.437 203.835 117.787L202.961 118.836C202.366 119.535 201.737 120.2 201.107 120.864C196.107 126.249 190.302 130.795 183.903 134.362C171.209 141.496 156.592 144.468 142.114 142.895C133.687 141.985 125.539 139.503 118.021 135.551C115.538 134.257 113.125 132.824 110.817 131.215C108.264 129.466 105.852 127.543 103.544 125.48C102.949 124.955 102.425 124.431 101.865 123.906C101.585 123.662 101.306 123.382 101.026 123.102L100.606 122.717L100.187 122.298L99.3822 121.459L98.6129 120.619C98.3681 120.34 98.0884 120.06 97.8436 119.78C97.5988 119.5 97.3191 119.221 97.0743 118.906C95.8504 117.472 94.6964 116.003 93.5774 114.465C92.4583 112.926 91.4442 111.387 90.4651 109.814C89.2762 107.856 88.1571 105.792 87.143 103.729C86.1289 101.666 85.2547 99.5679 84.4854 97.5047C83.4713 94.7771 82.8418 92.0495 82.1774 89.217C82.3523 89.5667 82.5271 89.9164 82.5621 90.0913L82.9118 91.1753C83.0866 91.8048 83.2615 92.4342 83.4363 92.9587C83.786 93.6232 83.9259 94.0777 84.0658 94.4974Z" fill="black"/>
<path d="M180.126 74.1104V68.5503H152.116V74.1104H180.056C180.056 74.1104 180.091 74.1104 180.126 74.1104Z" fill="black"/>
<path d="M182.224 60.8222C182.888 60.5424 183.483 60.1228 184.007 59.5982C184.532 59.0737 184.917 58.5142 185.231 57.8148C185.511 57.1504 185.686 56.416 185.686 55.6467H157.746C156.976 55.6467 156.242 55.7866 155.578 56.1013C154.913 56.416 154.319 56.8007 153.794 57.3252C153.27 57.8148 152.885 58.4093 152.57 59.1087C152.256 59.7731 152.116 60.5074 152.116 61.2768H180.056C180.825 61.2768 181.525 61.1369 182.224 60.8222Z" fill="black"/>
<path d="M218.767 60.2626C217.368 58.8289 215.689 57.7448 213.766 56.9056C211.843 56.1013 209.815 55.6816 207.682 55.6816H189.847C189.847 56.451 189.987 57.1853 190.302 57.8497C190.617 58.5141 191.001 59.1086 191.526 59.6332C192.05 60.1577 192.61 60.5423 193.274 60.8571C193.939 61.1718 194.673 61.3117 195.442 61.3117H207.716C209.115 61.3117 210.409 61.5914 211.633 62.081C212.857 62.6055 213.906 63.3399 214.85 64.2491C215.759 65.1932 216.494 66.2423 217.018 67.4662C217.543 68.6902 217.788 69.984 217.788 71.3828C217.788 72.7466 217.543 74.0404 217.018 75.2643C216.494 76.4883 215.759 77.5723 214.85 78.4815C213.906 79.3907 212.857 80.125 211.633 80.6496C210.409 81.1741 209.115 81.4189 207.716 81.4189H195.442C194.673 81.4189 193.939 81.5588 193.274 81.8735C192.61 82.1882 192.015 82.5729 191.526 83.0974C191.036 83.622 190.617 84.1815 190.302 84.8808C190.022 85.5453 189.847 86.2796 189.847 87.0489H207.716C209.85 87.0489 211.878 86.6293 213.801 85.825C215.724 85.0207 217.368 83.9017 218.802 82.468C220.235 81.0692 221.354 79.3907 222.159 77.4674C222.963 75.5441 223.383 73.5159 223.383 71.3828C223.383 69.2497 222.963 67.2214 222.159 65.2981C221.319 63.3399 220.2 61.6963 218.767 60.2626Z" fill="black"/>
<path d="M256.359 60.2626C254.925 58.8289 253.281 57.7098 251.393 56.9056C249.505 56.1013 247.476 55.6816 245.273 55.6816H243.07C240.902 55.6816 238.839 56.1013 236.951 56.9056C235.062 57.7098 233.384 58.8289 231.985 60.2626C230.551 61.6963 229.432 63.3399 228.628 65.2632C227.824 67.1865 227.404 69.2147 227.404 71.3478C227.404 73.4809 227.824 75.5091 228.628 77.4324C229.432 79.3557 230.551 80.9993 231.985 82.433C233.419 83.8667 235.062 84.9858 236.951 85.79C238.839 86.5943 240.867 87.014 243.07 87.014H245.273C247.441 87.014 249.505 86.5943 251.393 85.79C253.281 84.9858 254.96 83.8667 256.359 82.433C257.792 80.9993 258.911 79.3557 259.716 77.4324C260.52 75.5091 260.94 73.4809 260.94 71.3478C260.94 69.2147 260.52 67.1865 259.716 65.2632C258.911 63.3399 257.792 61.6963 256.359 60.2626ZM254.575 75.2294C254.051 76.4533 253.316 77.5373 252.407 78.4465C251.498 79.3557 250.414 80.0901 249.19 80.6146C247.966 81.1392 246.672 81.3839 245.273 81.3839H243.07C241.707 81.3839 240.413 81.1392 239.189 80.6146C237.965 80.0901 236.881 79.3557 235.972 78.4465C235.062 77.5373 234.328 76.4533 233.804 75.2294C233.279 74.0055 233.034 72.7116 233.034 71.3478C233.034 69.949 233.279 68.6552 233.804 67.4313C234.328 66.2073 235.062 65.1583 235.972 64.2141C236.881 63.3049 237.965 62.5706 239.189 62.046C240.413 61.5215 241.707 61.2767 243.07 61.2767H245.273C246.672 61.2767 247.966 61.5215 249.19 62.046C250.414 62.5706 251.463 63.3049 252.407 64.2141C253.316 65.1233 254.051 66.2073 254.575 67.4313C255.1 68.6552 255.344 69.949 255.344 71.3478C255.379 72.7116 255.1 74.0055 254.575 75.2294Z" fill="black"/>
<path d="M300 55.6816C299.231 55.6816 298.496 55.8215 297.832 56.1362C297.168 56.451 296.573 56.8356 296.049 57.3602C295.524 57.8847 295.139 58.4442 294.825 59.1436C294.51 59.808 294.37 60.5423 294.37 61.3117V78.9711L272.025 55.6816C271.255 55.6816 270.521 55.8215 269.857 56.1362C269.192 56.451 268.598 56.8356 268.073 57.3602C267.549 57.8847 267.164 58.4442 266.849 59.1436C266.535 59.808 266.395 60.5423 266.395 61.3117V87.014C267.164 87.014 267.898 86.8741 268.563 86.5594C269.227 86.2446 269.822 85.86 270.346 85.3355C270.871 84.8109 271.255 84.2514 271.57 83.552C271.885 82.8876 272.025 82.1533 272.025 81.3839V63.6896L294.405 87.014C295.489 87.014 296.433 86.7342 297.307 86.2097C298.182 85.6851 298.846 84.9858 299.371 84.1115L299.336 84.0766C299.79 83.3072 300 82.433 300 81.4189V55.6816Z" fill="black"/>
<path d="M33.5354 64.9135C33.5354 63.6196 33.2906 62.4307 32.836 61.3117C32.3464 60.1927 31.717 59.2135 30.8777 58.3743C30.0385 57.535 29.0593 56.8706 27.9403 56.416C26.8213 55.9264 25.6324 55.6816 24.3385 55.6816H0C0 56.451 0.139878 57.1853 0.454599 57.8497C0.734352 58.5141 1.15398 59.1086 1.67852 59.6332C2.16809 60.1577 2.76256 60.5423 3.46194 60.8571C4.12636 61.1368 4.82574 61.3117 5.59506 61.3117H24.3385C25.3526 61.3117 26.2268 61.6614 26.9262 62.3607C27.6256 63.0601 27.9753 63.9344 27.9753 64.9485C27.9753 65.9626 27.6256 66.8368 26.9262 67.5362C26.2268 68.2356 25.3526 68.6202 24.3385 68.6202H5.59506V74.1803H24.3035C25.3176 74.1803 26.1919 74.53 26.8912 75.2643C27.5906 75.9637 27.9403 76.8379 27.9403 77.8521C27.9403 78.8662 27.5906 79.7054 26.8912 80.4398C26.1919 81.1392 25.3176 81.4888 24.3035 81.4888H11.6447H5.63003C4.86071 81.4888 4.12636 81.6287 3.46194 81.9434C2.79753 82.2582 2.20305 82.6428 1.71349 83.1674C1.22392 83.6919 0.80429 84.2514 0.489568 84.9508C0.209815 85.6152 0.0349686 86.3495 0.0349686 87.1189H5.38524C5.45518 87.1189 5.49015 87.1189 5.56009 87.1189H24.3035C25.5974 87.1189 26.7863 86.8741 27.9053 86.4195C29.0244 85.9299 30.0035 85.3005 30.8428 84.4612C31.682 83.622 32.3464 82.6428 32.801 81.5238C33.2906 80.4048 33.5004 79.2159 33.5004 77.922C33.5004 76.6631 33.2556 75.4742 32.801 74.3901C32.3464 73.2711 31.717 72.3269 30.9127 71.4877C31.717 70.6484 32.3464 69.6693 32.801 68.5852C33.2906 67.3264 33.5354 66.1724 33.5354 64.9135Z" fill="black"/>
<path d="M67.2805 60.2626C65.8468 58.8289 64.2033 57.7098 62.3149 56.9056C60.4266 56.1013 58.3984 55.6816 56.1953 55.6816H53.9923C51.8242 55.6816 49.761 56.1013 47.8727 56.9056C45.9843 57.7098 44.3058 58.8289 42.9071 60.2626C41.4733 61.6963 40.3543 63.3399 39.55 65.2632C38.7457 67.1865 38.3261 69.2147 38.3261 71.3478C38.3261 73.4809 38.7457 75.5091 39.55 77.4324C40.3543 79.3557 41.4733 80.9993 42.9071 82.433C44.3408 83.8667 45.9843 84.9858 47.8727 85.79C49.761 86.5943 51.7892 87.014 53.9923 87.014H56.1953C58.3634 87.014 60.4266 86.5943 62.3149 85.79C64.2033 84.9858 65.8818 83.8667 67.2805 82.433C68.7143 80.9993 69.8333 79.3557 70.6376 77.4324C71.4419 75.5091 71.8615 73.4809 71.8615 71.3478C71.8615 69.2147 71.4419 67.1865 70.6376 65.2632C69.7983 63.3399 68.6793 61.6963 67.2805 60.2626ZM65.4621 75.2294C64.9376 76.4533 64.2033 77.5373 63.2941 78.4465C62.3849 79.3557 61.3008 80.0901 60.0769 80.6146C58.853 81.1392 57.5591 81.3839 56.1604 81.3839H53.9573C52.5935 81.3839 51.2997 81.1392 50.0757 80.6146C48.8518 80.0901 47.7678 79.3557 46.8586 78.4465C45.9494 77.5373 45.215 76.4533 44.6905 75.2294C44.166 74.0055 43.9212 72.7116 43.9212 71.3478C43.9212 69.949 44.166 68.6552 44.6905 67.4313C45.215 66.2073 45.9494 65.1583 46.8586 64.2141C47.7678 63.3049 48.8518 62.5706 50.0757 62.046C51.2997 61.5215 52.5935 61.2767 53.9573 61.2767H56.1604C57.5591 61.2767 58.853 61.5215 60.0769 62.046C61.3008 62.5706 62.3499 63.3049 63.2941 64.2141C64.2033 65.1233 64.9376 66.2073 65.4621 67.4313C65.9867 68.6552 66.2315 69.949 66.2315 71.3478C66.2664 72.7116 65.9867 74.0055 65.4621 75.2294Z" fill="black"/>
<path d="M142.569 73.411C143.688 72.9214 144.667 72.292 145.506 71.4527L145.611 71.3478C146.416 70.5085 147.045 69.5294 147.5 68.4454C147.954 67.3264 148.199 66.1724 148.199 64.9135C148.199 63.6196 147.954 62.4307 147.465 61.3117C146.975 60.1927 146.346 59.2135 145.506 58.3743C144.667 57.535 143.688 56.8706 142.569 56.416C141.45 55.9264 140.261 55.6816 138.967 55.6816H114.664C114.664 56.451 114.804 57.1853 115.118 57.8497C115.433 58.5141 115.818 59.1086 116.342 59.6332C116.832 60.1577 117.426 60.5423 118.091 60.8571C118.755 61.1718 119.489 61.3117 120.259 61.3117H138.967C139.981 61.3117 140.856 61.6614 141.555 62.3607C142.254 63.0601 142.604 63.9344 142.604 64.9485C142.604 65.9626 142.254 66.8368 141.555 67.5362C140.856 68.2356 139.981 68.6202 138.967 68.6202H120.713H120.259C120.224 68.6202 120.154 68.6202 120.119 68.6202H120.049C119.35 68.6552 118.72 68.7951 118.091 69.0748C117.426 69.3895 116.832 69.7742 116.342 70.2987C115.818 70.8233 115.433 71.3828 115.153 72.0822C114.874 72.7466 114.699 73.4809 114.699 74.2153V81.4189C114.699 82.1882 114.839 82.9226 115.153 83.587C115.433 84.2514 115.853 84.8459 116.377 85.3704C116.867 85.86 117.461 86.2796 118.126 86.5594C118.79 86.8741 119.524 87.014 120.294 87.014V74.1104H129.071L140.296 85.3355C140.856 85.895 141.485 86.3146 142.184 86.5943C142.884 86.8741 143.583 87.014 144.283 87.014C144.982 87.014 145.681 86.8741 146.381 86.5943C147.08 86.3146 147.675 85.8949 148.199 85.3704L136.974 74.1453H139.002C140.261 74.1104 141.485 73.9006 142.569 73.411Z" fill="black"/>
<path d="M85.3246 61.2768H104.033C104.802 61.2768 105.537 61.1369 106.201 60.8222C106.866 60.5074 107.46 60.1228 107.985 59.5982C108.474 59.0737 108.894 58.5142 109.209 57.8148C109.523 57.1504 109.663 56.416 109.663 55.6467H85.3596C84.0657 55.6467 82.8768 55.8915 81.7578 56.3461C80.6388 56.8357 79.6596 57.4651 78.8204 58.3044C77.9811 59.1436 77.3167 60.1228 76.8621 61.2418C76.3725 62.3608 76.1627 63.5497 76.1627 64.8436C76.1627 66.1025 76.4075 67.2565 76.8621 68.3055C77.3167 69.3546 77.9461 70.3687 78.7504 71.2779L78.8553 71.3828C79.7296 72.2221 80.7087 72.8865 81.7927 73.3411C82.9117 73.8307 84.1007 74.0405 85.3596 74.0405H100.431C101.445 74.0405 102.32 74.3902 103.019 75.1245C103.718 75.8239 104.068 76.6981 104.068 77.7122C104.068 78.7263 103.718 79.6006 103.019 80.2999C102.32 80.9993 101.445 81.349 100.431 81.349H81.7228C80.9535 81.349 80.2191 81.4889 79.5547 81.8036C78.8903 82.1183 78.2958 82.503 77.7713 83.0275C77.2467 83.5521 76.8621 84.1116 76.5474 84.811C76.2326 85.4754 76.0928 86.2097 76.0928 86.979H100.396C101.69 86.979 102.879 86.7343 103.998 86.2797C105.117 85.7901 106.096 85.1606 106.936 84.3214C107.775 83.4821 108.439 82.503 108.894 81.384C109.383 80.265 109.593 79.076 109.593 77.7822C109.593 76.5233 109.348 75.3693 108.894 74.3202C108.439 73.2712 107.81 72.2571 107.005 71.3479L106.901 71.2429C106.026 70.4037 105.047 69.7393 103.963 69.2847C102.844 68.7951 101.655 68.5853 100.396 68.5853H85.3246C84.3105 68.5853 83.4363 68.2356 82.7369 67.5013C82.0375 66.8019 81.6878 65.9276 81.6878 64.9135C81.6878 63.8994 82.0375 63.0252 82.7369 62.3258C83.4363 61.6264 84.3105 61.2768 85.3246 61.2768Z" fill="black"/>
<path d="M184.077 83.0626C183.553 82.538 182.993 82.1534 182.329 81.8386C181.665 81.5589 180.93 81.384 180.161 81.384H179.322H152.151C152.151 82.1534 152.291 82.8877 152.605 83.5521C152.885 84.2165 153.305 84.811 153.829 85.3355C154.354 85.8251 154.913 86.2447 155.613 86.5245C156.277 86.8392 157.011 86.9791 157.781 86.9791H171.454H185.791C185.791 86.2098 185.651 85.4754 185.336 84.811C184.987 84.1816 184.567 83.5871 184.077 83.0626Z" fill="black"/>
</g>
<defs>
<clipPath id="clip0_4064_1951">
<rect width="300" height="143.31" fill="black"/>
</clipPath>
</defs>
</svg>
