<svg viewBox="0 0 515 604" xmlns="http://www.w3.org/2000/svg"><path d="m116 563.4c0 3.3-.6 6.4-1.8 9.1s-2.9 5.3-5 7.4-4.6 3.8-7.4 4.9-5.9 1.8-9.2 1.8-6.4-.6-9.2-1.8-5.3-2.9-7.4-4.9-3.8-4.6-5-7.4-1.8-5.9-1.8-9.1.6-6.4 1.8-9.1 2.9-5.3 5-7.4 4.6-3.8 7.4-4.9 5.9-1.8 9.2-1.8 6.4.6 9.2 1.8 5.3 2.9 7.4 4.9 3.8 4.6 5 7.4 1.8 5.9 1.8 9.1zm-11 0c0-1.9-.3-3.7-.9-5.3s-1.5-3-2.6-4.2-2.4-2.1-4-2.7-3.2-1-5-1-3.5.3-5 1-2.9 1.6-4 2.7-2 2.6-2.6 4.2-.9 3.4-.9 5.3.3 3.7.9 5.3 1.5 3 2.6 4.2 2.5 2.1 4 2.7 3.2 1 5 1 3.5-.3 5-1 2.8-1.6 4-2.7 2-2.6 2.6-4.2.9-3.4.9-5.3zm63.4-22.8c-1.4.3-2.7.9-3.9 1.6s-2.3 1.5-3.3 2.5-1.8 2.1-2.5 3.3c-.7-1.3-1.4-2.4-2.4-3.4s-1.9-1.8-3.1-2.5-2.4-1.2-3.7-1.5-2.8-.5-4.4-.5-2.4 0-3.5.4-2.2.6-3.2 1.1-1.9 1-2.8 1.7-1.6 1.5-2.3 2.3v-4.6h-10.8v44.8h10.8v-22.1c0-2.1.2-4.1.7-5.8s1.1-3.1 1.9-4.3 1.9-2.1 3.1-2.7 2.6-.9 4.1-.9 2.8.4 3.7 1.1 1.7 1.6 2.2 2.7.8 2.3 1 3.5.2 2.3.2 3.3v25.1h10.8v-22.7c0-2 .3-3.9.8-5.5s1.1-3 2-4.1 1.9-2 3-2.6 2.5-.9 4-.9 2.8.4 3.7 1.1 1.7 1.6 2.2 2.7.8 2.3 1 3.5.2 2.3.2 3.3v25.1h10.8v-26.7c0-2.9-.4-5.6-1.1-7.9s-1.8-4.3-3.2-6-3.1-2.9-5.1-3.8-4.5-1.1-6.6-1.1-2.9.2-4.3.5zm82.4 45.2h10.8v-63.1h-10.8zm62.3-14.1c-.7 2.3-1.8 4.4-3.2 6.2s-3 3.4-5 4.7-4.1 2.3-6.4 3-4.8 1.1-7.5 1.1-6.4-.6-9.2-1.7-5.2-2.8-7.3-4.8-3.7-4.6-4.8-7.4-1.7-6-1.7-9.3.6-6.6 1.7-9.4 2.7-5.3 4.7-7.4 4.5-3.7 7.3-4.8 5.9-1.7 9.3-1.7 3.2 0 4.7.4 3 .7 4.4 1.3 2.7 1.3 3.9 2.1 2.3 1.8 3.4 2.9c1.1 1.2 2.1 2.5 2.9 3.9s1.5 2.9 2 4.5.9 3.3 1.1 5.1.2 3.6.1 5.5v.6h-34.6c.1 1.6.6 3 1.2 4.3s1.6 2.4 2.7 3.4 2.4 1.7 3.9 2.2 3 .8 4.7.8 2.4 0 3.5-.4 2.1-.6 2.9-1.1 1.7-1.1 2.3-1.8 1.2-1.5 1.7-2.5v-.4h11.2v.4c-.1 0-.1.2-.1.2v.2c-.1 0 .2 0 .2 0zm-33.7-13.3h22.7c-.4-1.4-.9-2.7-1.6-3.8s-1.5-2.1-2.4-2.8-2-1.4-3.2-1.8-2.5-.6-3.8-.6-2.8.2-4.1.6-2.4 1-3.4 1.8-1.9 1.7-2.6 2.8-1.2 2.4-1.6 3.8zm81-17.4h-13l-2.7 3.6-2.7 3.6-2.7 3.6-2.7 3.6-2.7-3.6-2.7-3.6-2.7-3.6-2.7-3.6h-12.9l4.2 5.6 4.2 5.6 4.2 5.6 4.2 5.6-4.5 5.6-4.5 5.6-4.5 5.6-4.5 5.6h13.2l2.9-3.6 2.9-3.6 2.9-3.6 2.9-3.6 2.9 3.6 2.9 3.6 2.9 3.6 2.9 3.6h13.2l-4.5-5.6-4.5-5.6-4.5-5.6-4.5-5.6 4.2-5.6 4.2-5.6 4.2-5.6 4.2-5.6zm55.4 26.1c0 2.7-.5 5.2-1.5 7.5s-2.5 4.3-4.3 5.9-4 3-6.5 3.9-5.3 1.4-8.2 1.4h-24.7v-63.2h22c2.7 0 5.3.5 7.6 1.3s4.3 2.1 6.1 3.7 3.1 3.5 4 5.6 1.5 4.5 1.5 7-.1 2.4-.3 3.5-.5 2.2-1 3.1-1 1.9-1.6 2.8-1.4 1.7-2.3 2.4c1.5.7 2.9 1.6 4 2.6s2.1 2.1 2.9 3.4 1.4 2.6 1.8 4.1.6 3.1.6 4.8v.2zm-33.9-18.3h10c1.3 0 2.4-.2 3.4-.6s1.9-.9 2.6-1.6 1.3-1.5 1.7-2.5.6-2 .6-3.2-.2-2.2-.6-3.1-1-1.8-1.7-2.5-1.6-1.2-2.7-1.6-2.2-.6-3.4-.6h-10v15.7zm22.7 18.2c0-1.3-.2-2.4-.7-3.5s-1.1-1.9-1.9-2.6-1.9-1.3-3.1-1.7-2.5-.6-4-.6h-13v16.6h13c1.5 0 2.8-.2 4-.6s2.2-.9 3.1-1.7 1.5-1.6 1.9-2.6.7-2.2.7-3.5zm50.6-26h10.8v44.8h-10.8v-4.7c-.7.7-1.5 1.5-2.4 2.1s-2 1.3-3.1 1.8-2.4.9-3.7 1.2-2.7.5-4.1.5c-3 0-5.9-.6-8.5-1.8s-4.9-2.9-6.9-4.9-3.5-4.6-4.6-7.4-1.7-5.9-1.7-9.1.6-6.4 1.7-9.1 2.6-5.3 4.6-7.4 4.3-3.8 6.9-4.9 5.5-1.8 8.5-1.8 2.8.2 4.1.5 2.5.7 3.7 1.2 2.2 1.1 3.1 1.8 1.8 1.4 2.4 2.1v-4.8zm.8 22.4c0-1.9-.3-3.7-.9-5.4s-1.5-3-2.6-4.2-2.4-2.1-3.9-2.8-3.2-1-5-1-3.5.4-5 1-2.8 1.6-3.9 2.8-2 2.6-2.6 4.2-.9 3.4-.9 5.4.3 3.7.9 5.4 1.5 3 2.6 4.2 2.4 2.1 3.9 2.8 3.2 1 5 1 3.5-.4 5-1 2.8-1.6 3.9-2.8 2-2.6 2.6-4.2.9-3.4.9-5.4zm46.2-22.4v22.1c0 2.1-.2 4.1-.7 5.8s-1.1 3.1-2 4.3-1.9 2.1-3.2 2.7-2.6.9-4.2.9-2.4-.2-3.4-.7-1.9-1.2-2.5-2.1-1.2-2-1.6-3.3-.5-2.8-.5-4.5v-25.1h-10.8v26.7c0 2.9.4 5.5 1.2 7.8s1.9 4.3 3.4 6 3.2 2.9 5.3 3.8 4.4 1.3 6.9 1.3 2.5 0 3.7-.4 2.3-.6 3.3-1 2-1 2.8-1.7 1.6-1.4 2.3-2.3v4.5h10.8v-44.8zm-258.2 22.4c0 3.3-.6 6.4-1.7 9.1s-2.6 5.3-4.6 7.4-4.3 3.8-6.9 4.9-5.5 1.8-8.5 1.8-2.8-.2-4.2-.5-2.6-.7-3.7-1.2-2.2-1.1-3.1-1.8-1.8-1.4-2.5-2.1v21h-10.8v-61.1h10.8v4.8c.7-.7 1.5-1.5 2.5-2.1s2-1.3 3.1-1.8 2.4-.9 3.7-1.2 2.7-.5 4.2-.5c3 0 5.9.6 8.5 1.8s4.9 2.9 6.9 4.9 3.5 4.6 4.6 7.4 1.7 5.9 1.7 9.1zm-11 0c0-1.9-.3-3.7-.9-5.4s-1.5-3-2.6-4.2-2.4-2.1-3.9-2.8-3.2-1-5-1-3.5.4-5 1-2.8 1.6-4 2.8-2 2.6-2.6 4.2-.9 3.4-.9 5.4.3 3.7.9 5.4 1.5 3 2.6 4.2 2.4 2.1 4 2.8 3.2 1 5 1 3.5-.4 5-1 2.8-1.6 3.9-2.8 2-2.6 2.6-4.2.9-3.4.9-5.4zm-219.5-9.1c0 3.1.6 6 1.6 8.6s2.5 4.9 4.4 6.8 4.2 3.4 6.8 4.5 5.5 1.6 8.6 1.6 4.1-.3 6-.8 3.7-1.3 5.3-2.4 3-2.2 4.2-3.6 2.1-3 2.8-4.7v-.4h12.2v.8c-.8 3.3-2.2 6.3-4.1 9s-4.2 5.1-6.9 7-5.7 3.5-9 4.6-6.8 1.6-10.5 1.6-9.1-.9-13-2.5-7.5-3.9-10.4-6.9-5.3-6.4-6.9-10.3-2.5-8.3-2.5-12.9.9-9 2.5-12.9 4-7.4 6.9-10.3 6.5-5.3 10.4-6.9 8.4-2.5 13-2.5 7.2.6 10.5 1.6 6.3 2.6 9 4.6 5 4.3 6.9 7 3.3 5.7 4.1 9v.8h-12.2v-.4c-.6-1.7-1.6-3.3-2.8-4.7s-2.6-2.6-4.2-3.6-3.4-1.8-5.3-2.4-3.9-.8-6-.8c-3.1 0-6 .6-8.6 1.6s-4.9 2.6-6.8 4.5-3.4 4.2-4.4 6.8-1.6 5.5-1.6 8.6z" fill="#fff"/></svg>