<svg width="71" height="48" viewBox="0 0 71 48" fill="none" xmlns="http://www.w3.org/2000/svg">
<path fill-rule="evenodd" clip-rule="evenodd" d="M9.6977 13.6292V0.000105936L0.5 0V34.3709H9.6977V22.7152H12.2989V48H21.4965V21.2554C21.4965 17.0435 18.0403 13.6292 13.7768 13.6292H9.6977ZM70.1471 13.2766H55.082C50.8758 13.2766 47.4666 16.7256 47.469 20.9785L47.4698 22.4477L47.4712 25.0416H35.8356V34.2128H48.9285C53.1331 34.2128 56.5415 30.7664 56.5415 26.5151V22.4477H70.1471V13.2766ZM45.0536 20.9743V22.4477H33.2546V34.2128H24.0571V13.2766H37.3337C41.5973 13.2766 45.0536 16.7229 45.0536 20.9743Z" fill="white"/>
</svg>
