<?xml version="1.0" encoding="utf-8"?>
<!-- Generator: Adobe Illustrator 26.0.1, SVG Export Plug-In . SVG Version: 6.00 Build 0)  -->
<svg version="1.1" id="Calque_1" xmlns="http://www.w3.org/2000/svg" xmlns:xlink="http://www.w3.org/1999/xlink" x="0px" y="0px"
	 width="523.6" height="42.3" viewBox="0 0 523.6 42.3" style="enable-background:new 0 0 523.6 42.3;" xml:space="preserve">
<style type="text/css">
	.st0{fill:#1D1D1B;}
</style>
<path class="st0" d="M511.7,42.2c7,0,11.9-3.6,11.9-9.2c0-5.1-3.9-7.7-7.9-8.5l-6-1.2c-2.8-0.6-5-1.5-5-4.3c0-2.6,2.4-4.4,6.5-4.4
	s7,1.9,7,5.5h5c0-6.3-4.8-9.7-11.9-9.7c-6.7,0-11.4,3.5-11.4,8.8c0,4.4,2.5,7.2,7.3,8.2l5.9,1.2c3.2,0.7,5.6,1.9,5.6,4.7
	c0,3-2.9,4.7-7,4.7c-3.8,0-7.5-2.1-7.3-6.5h-5C499,38.3,504.4,42.2,511.7,42.2 M476.9,6.7h4.5c2.9-1.8,5.5-4,7.8-6.5V0h-6.8
	c-1.6,2.4-3.5,4.6-5.6,6.6V6.7z M471.2,23.2c0.5-4.8,3.2-8.6,9-8.6c5.3,0,8.4,3.1,8.4,8.2v0.4L471.2,23.2z M480.2,42.2
	c7.8,0,13-5,13.2-10.4h-5c-0.5,3.2-3.5,6.1-8.2,6.1c-5.8,0-9-4.3-9-10.7h22.2c0.1-1.1,0.2-2.2,0.2-3.2c0-8-4.6-13.5-13.3-13.5
	c-8.9,0-14.2,6.2-14.2,16S471.2,42.2,480.2,42.2 M453.2,7.7h5.5c-0.1-1.2-0.1-2.3-0.1-3.1s0-1.9,0.1-3h-5.6c0.1,1.1,0.1,2.3,0.1,3
	s-0.1,1.9-0.1,3.1 M453.1,41.4h5.7c-0.2-5.6-0.3-9.6-0.3-12.7V24c0-3.1,0.1-7.2,0.3-12.7h-5.7c0.2,5.6,0.3,9.6,0.3,12.7v4.7
	C453.3,31.8,453.2,35.9,453.1,41.4 M433.1,42.2c8.2,0,12.8-5.4,12.9-11.9h-5.1c-0.2,4.1-2.7,7.5-7.8,7.5c-5.7,0-8.8-4.7-8.8-11.6
	c0-6.1,2.2-11.3,8.9-11.3c4.9,0,7.7,2.9,7.7,7.5h5.1c0.2-6.6-4.4-12.1-12.9-12.1c-9.9,0-14,6.9-14,15.8
	C419.1,35.6,423.9,42.2,433.1,42.2 M390.1,26.3c0-6.9,2.7-11.4,9-11.4s8.9,4.5,8.9,11.4s-3.2,11.5-8.9,11.5S390.1,33.2,390.1,26.3
	 M399.1,42.3c8.9,0,14.1-6.5,14.1-16c0-9.7-4.7-16-14.1-16s-14.2,6.3-14.2,16C384.8,35.8,390.1,42.3,399.1,42.3 M367.2,42.2
	c7,0,11.9-3.6,11.9-9.2c0-5.1-3.9-7.7-7.9-8.5l-6-1.2c-2.8-0.6-5-1.5-5-4.3c0-2.6,2.4-4.4,6.5-4.4s7,1.9,7,5.5h5
	c0.1-6.3-4.8-9.7-11.9-9.7c-6.7,0-11.4,3.5-11.4,8.8c0,4.4,2.4,7.2,7.3,8.2l5.9,1.2c3.2,0.7,5.6,1.9,5.6,4.7c0,3-2.9,4.7-7,4.7
	c-3.8,0-7.5-2.1-7.3-6.5h-4.9c-0.3,6.8,5.1,10.7,12.3,10.7 M337.2,42.2c7,0,11.9-3.6,11.9-9.2c0-5.1-3.9-7.7-7.9-8.5l-6-1.2
	c-2.8-0.6-5-1.5-5-4.3c0-2.6,2.4-4.4,6.5-4.4s7,1.9,7,5.5h4.9c0.1-6.3-4.8-9.7-11.9-9.7c-6.7,0-11.4,3.5-11.4,8.8
	c0,4.4,2.5,7.2,7.3,8.2l5.9,1.2c3.2,0.7,5.6,1.9,5.6,4.7c0,3-2.9,4.7-7,4.7c-3.8,0-7.5-2.1-7.3-6.5h-5
	C324.5,38.3,329.9,42.2,337.2,42.2 M295.9,26.2l2.6-7.3c1.5-4.1,3.6-10,4.2-11.9h0.2c0.6,1.9,2.8,7.7,4.3,11.9l2.5,7.3H295.9z
	 M284.4,41.4h6.1c1-3,2-6,3.6-10.4h17.2c1.5,4.4,2.6,7.4,3.6,10.4h6.3c-1.3-3.1-3.5-9-5.3-13.5l-4-10.1c-2.2-5.6-5.2-13.1-6.3-16.3
	h-5.8c-1.1,3.1-4,10.6-6.2,16.3l-4,10.1c-1.8,4.5-4,10.4-5.3,13.5 M199.7,26.2c0-6.9,2.9-11.4,8.6-11.4c6.5,0,8.9,4.9,8.9,11.4
	s-3.4,11.5-8.9,11.5S199.7,33,199.7,26.2 M207.2,42.2c4.3,0,8.2-2.7,9.8-6.8h0.3c0,2.4,0.1,4.4,0.2,6h5.1c-0.3-4-0.5-8.4-0.5-13V15
	c0-5.2,0.1-9.8,0.3-13.4h-5.5c0.2,4.2,0.3,9.7,0.4,14.7h-0.3c-1.8-3.7-5.6-6.1-9.7-6c-8.1,0-12.7,6.3-12.7,15.9
	C194.5,35.1,199,42.2,207.2,42.2 M187.1,11.3h-5.7c0.2,5.6,0.3,9.6,0.3,12.7v4.1c0,5.8-3.1,9.6-7.8,9.6c-3.6,0-6.7-1.8-6.7-7.3V24
	c0-3.1,0.1-7.2,0.3-12.7h-5.7c0.2,5.6,0.3,9.6,0.3,12.7v8.2c0,5.9,3.5,10.1,9.9,10.1c4.3,0.2,8.3-2.5,9.8-6.5h0.3
	c-0.1,1.4-0.1,2.5-0.1,4.1v1.6h5.4c-0.3-3.6-0.5-7.1-0.5-10.7V24C186.8,20.9,186.9,16.8,187.1,11.3 M133.4,33.1c0-4,4-5.7,14.8-6.4
	v2.5c0,5.3-3.4,8.8-8.7,8.8C135.9,38,133.4,36,133.4,33.1 M138.2,42.2c4.5,0,8.4-2.3,10-5.6h0.3c-0.1,1.6,0.1,3.3,0.5,4.8h5.1v-0.2
	c-0.7-2.5-1-5-0.9-7.6V21.6c0-7.6-4-11.3-12.1-11.3c-7.3,0-12.3,4.2-12.1,10.5h4.9c-0.2-3.8,2.7-6.3,7.1-6.3c4.9,0,7.2,2.3,7.2,7.2
	v1.4l-4.8,0.4c-8.4,0.7-15.2,2.8-15.2,9.7C128.1,38.6,132.1,42.2,138.2,42.2 M109.5,42.2c8.2,0,12.8-5.4,12.9-11.9h-5.1
	c-0.2,4.1-2.7,7.5-7.8,7.5c-5.7,0-8.8-4.7-8.8-11.6c0-6.1,2.2-11.3,8.9-11.3c4.9,0,7.7,2.9,7.7,7.5h5.1c0.2-6.6-4.4-12.1-12.9-12.1
	c-9.9,0-14,6.9-14,15.8C95.5,35.6,100.3,42.2,109.5,42.2 M76.7,42.2c8.2,0,12.8-5.4,12.9-11.9h-5.1c-0.2,4.1-2.7,7.5-7.8,7.5
	c-5.7,0-8.8-4.7-8.8-11.6c0-6.1,2.2-11.3,8.9-11.3c4.9,0,7.7,2.9,7.7,7.5h5.2c0.2-6.6-4.4-12.1-12.9-12.1c-9.9,0-14,6.9-14,15.8
	C62.8,35.6,67.6,42.1,76.7,42.2 M35.8,33c0-4,4-5.7,14.8-6.4v2.5c0,5.3-3.4,8.8-8.7,8.8C38.2,38,35.8,36,35.8,33 M40.5,42.1
	c4.5,0,8.3-2.3,10-5.6h0.2c-0.1,1.6,0.1,3.3,0.5,4.8h5.1v-0.2c-0.7-2.5-1-5-0.9-7.6V21.6c0-7.6-4-11.3-12-11.3
	c-7.3,0-12.3,4.2-12.1,10.5h4.9c-0.2-3.8,2.7-6.3,7.1-6.3c5,0,7.2,2.3,7.2,7.2v1.4l-4.8,0.4c-8.4,0.7-15.2,2.8-15.2,9.7
	C30.5,38.6,34.5,42.2,40.5,42.1 M11.5,42.2c7.4,0,11.4-3.9,11.4-11.8v-16c0-3.1,0.1-7.1,0.3-12.7h-5.9c0.2,5.6,0.3,9.6,0.3,12.7
	v16.2c0,4.6-2,6.9-6.1,6.9c-3.8,0-6.1-2.6-6.1-7.6c0-0.6,0-1.1,0.1-1.7H0.1C0,28.8,0,29.5,0,30.2C0,37.8,4.3,42.1,11.5,42.2"/>
<polygon class="st0" points="258.2,20.5 258.2,1.6 256.1,1.6 256.1,20.5 235.9,20.5 235.9,22.6 256.1,22.6 256.1,41.4 258.2,41.4 
	258.2,22.6 278.3,22.6 278.3,20.5 "/>
</svg>
