<svg xmlns="http://www.w3.org/2000/svg" viewBox="0 0 578.285 163.066"><path d="M401.63,132.47Q390.7,120.431,390.7,102.6T401.63,72.717a36.495,36.495,0,0,1,12.6-9.141q7.469-3.343,18.173-3.344a31.311,31.311,0,0,1,18.948,6.02,34.792,34.792,0,0,1,12.043,15.606h18.06a50.884,50.884,0,0,0-18.729-26.532Q448.448,45.075,428.833,45.07q-24.533,0-39.912,16.723-14.939,16.28-14.937,40.8t14.937,40.8q15.386,16.719,39.912,16.72,19.614,0,33.889-10.256a50.864,50.864,0,0,0,18.729-26.53h-18.06a34.755,34.755,0,0,1-12.043,15.606,31.311,31.311,0,0,1-18.948,6.02q-19.623,0-30.77-12.488"/><path d="M57.709,132.471Q47.227,120.657,47.23,102.593T57.709,72.718Q68.856,60.233,86.694,60.232q18.06,0,28.539,12.486,10.03,11.822,10.033,29.875t-10.033,29.878Q104.75,144.96,86.694,144.954q-17.841,0-28.985-12.483m66.665,25.862H141.1V46.854H124.374v18.06q-13.6-19.841-38.795-19.843T45.224,61.791q-14.715,16.5-14.713,40.8t14.713,40.8q15.159,16.722,39.242,16.723,26.531,0,39.908-19.619v17.834ZM19.556,2.263H2.833v156.07H19.556Z"/><path d="M345.57,102.593q0,18.063-10.033,29.878Q325.055,144.959,307,144.956q-17.843,0-28.984-12.485-10.485-11.816-10.479-29.878t10.479-29.876Q289.16,60.236,307,60.231q18.058,0,28.538,12.486,10.031,11.822,10.033,29.876m-95.2,0q0,18.063-10.479,29.878-11.149,12.487-28.983,12.485-18.058,0-28.538-12.485-10.035-11.816-10.034-29.878t10.033-29.876Q192.842,60.236,210.9,60.231q17.837,0,28.983,12.486,10.481,11.822,10.48,29.876M361.4,158.332V46.854H344.676V64.913q-13.6-19.84-38.8-19.843T265.526,61.793a57.46,57.46,0,0,0-6.639,9.112,57,57,0,0,0-6.738-9.112Q237.211,45.071,213.133,45.07q-26.313,0-39.911,19.843V2.263H156.5V158.332h16.72V140.5q13.378,19.623,38.685,19.619t40.241-16.722a56.988,56.988,0,0,0,6.738-9.11,57.445,57.445,0,0,0,6.639,9.11q15.159,16.72,39.241,16.722,26.532,0,39.909-19.619v17.836Z"/></svg>