<?xml version="1.0" standalone="no"?><!DOCTYPE svg PUBLIC "-//W3C//DTD SVG 1.1//EN" "http://www.w3.org/Graphics/SVG/1.1/DTD/svg11.dtd"><svg width="100%" height="100%" viewBox="0 0 798 408" version="1.1" xmlns="http://www.w3.org/2000/svg" xmlns:xlink="http://www.w3.org/1999/xlink" xml:space="preserve" style="fill-rule:evenodd;clip-rule:evenodd;stroke-linejoin:bevel;stroke-miterlimit:1.41421;"><g id="Ebene1"><rect x="106.092" y="96.988" width="584.248" height="205.117" style="fill:#fff;"/></g><path d="M205.74,404.5c-110.48,0 -200.16,-89.52 -200.16,-199.92c0,-110.4 89.52,-200.08 200.16,-200.08l387.76,0c110.4,0 199.92,89.52 199.92,200.08c0,110.4 -89.52,199.92 -199.92,199.92l-0.56,0l-387.2,0ZM202.22,144.18c-33.36,0 -60.4,27.04 -60.4,60.4c0,33.36 27.04,60.24 60.4,60.24l394.8,0c33.36,0 60.4,-27.04 60.4,-60.24c0,-33.36 -27.04,-60.4 -60.4,-60.4l-394.8,0Z" style="fill:#e65225;fill-rule:nonzero;stroke-width:1.88px;stroke:#010101;"/><g><path d="M276.14,210.18l10,0l8,23.12l8.32,-23.12l10,0l5.92,43.52l-10,0l-2.96,-25.04l-0.16,0l-9.28,25.04l-4.08,0l-8.88,-25.04l-0.16,0l-3.36,25.04l-10,0l6.64,-43.52Z" style="fill:#010101;fill-rule:nonzero;stroke-width:0.75px;stroke-linejoin:miter;stroke:#010101;"/><path d="M333.34,246.1l-2.56,7.6l-10.72,0l15.04,-43.52l10.96,0l14.64,43.52l-10.72,0l-2.56,-7.6l-14.08,0ZM340.38,223.7l-4.24,13.92l8.32,0l-4.08,-13.92Z" style="fill:#010101;fill-rule:nonzero;stroke-width:0.75px;stroke-linejoin:miter;stroke:#010101;"/><path d="M397.1,253.7l-12.56,0l-9.44,-16.64l-0.16,0l0,16.64l-10.16,0l0,-43.52l15.04,0c7.6,0 13.52,4.08 13.52,13.36c0,5.92 -2.96,11.12 -8.56,12.24l12.32,17.92ZM374.86,229.62l0.96,0c3.36,0 7.04,-0.72 7.04,-5.36c0,-4.8 -3.68,-5.36 -7.04,-5.36l-0.96,0l0,10.72Z" style="fill:#010101;fill-rule:nonzero;stroke-width:0.75px;stroke-linejoin:miter;stroke:#010101;"/><path d="M410.62,246.1l-2.56,7.6l-10.72,0l15.04,-43.52l10.96,0l14.64,43.52l-10.72,0l-2.56,-7.6l-14.08,0ZM417.66,223.7l-4.24,13.92l8.32,0l-4.08,-13.92Z" style="fill:#010101;fill-rule:nonzero;stroke-width:0.75px;stroke-linejoin:miter;stroke:#010101;"/><path d="M472.46,244.02l0,9.6l-33.36,0l18.32,-33.92l-15.04,0l0,-9.6l32.08,0l-18.32,33.92l16.32,0Z" style="fill:#010101;fill-rule:nonzero;stroke-width:0.75px;stroke-linejoin:miter;stroke:#010101;"/><path d="M509.9,244.02l0,9.6l-33.36,0l18.32,-33.92l-15.2,0l0,-9.6l32.08,0l-18.32,33.92l16.48,0Z" style="fill:#010101;fill-rule:nonzero;stroke-width:0.75px;stroke-linejoin:miter;stroke:#010101;"/><rect x="516.94" y="210.18" width="10" height="43.52" style="fill:#010101;fill-rule:nonzero;stroke-width:0.75px;stroke-linejoin:miter;stroke:#010101;"/></g><g><path d="M281.1,191.06l11.52,0l0,9.6l-21.12,0l0,-43.52l9.6,0l0,33.92Z" style="fill:#010101;fill-rule:nonzero;stroke-width:0.87px;stroke-linejoin:miter;stroke:#010101;"/><path d="M335.18,178.1c0,14.08 -8.56,23.92 -20.4,23.92c-11.84,0 -20.4,-10 -20.4,-23.92c0,-13.12 9.84,-22.4 20.4,-22.4c10.64,0 20.4,9.28 20.4,22.4ZM304.46,178.1c0,7.44 4.64,12.96 10.4,12.96c5.76,0 10.4,-5.52 10.4,-12.96c0,-5.92 -4.64,-11.52 -10.4,-11.52c-5.76,0 -10.4,5.6 -10.4,11.52Z" style="fill:#010101;fill-rule:nonzero;stroke-width:0.87px;stroke-linejoin:miter;stroke:#010101;"/><path d="M360.62,168.26c-1.84,-1.68 -4.08,-2.96 -6.32,-2.96c-1.84,0 -4.08,1.28 -4.08,3.68c0,2.56 2.56,3.52 4.24,4.08l2.4,0.96c5.2,1.84 9.04,4.8 9.04,11.84c0,4.24 -0.96,8.72 -3.92,11.68c-2.96,2.96 -6.88,4.08 -10.56,4.08c-4.64,0 -9.28,-1.84 -12.96,-5.04l4.08,-9.04c2.4,2.4 5.2,4.48 8.56,4.48c2.24,0 4.64,-1.28 4.64,-4.48c0,-3.12 -3.68,-4.24 -5.76,-5.04c-6.08,-2 -10,-3.92 -10,-12.24c0,-8.88 5.36,-14.64 12.8,-14.64c3.68,0 8.32,1.28 11.52,3.52l-3.68,9.12Z" style="fill:#010101;fill-rule:nonzero;stroke-width:0.87px;stroke-linejoin:miter;stroke:#010101;"/><rect x="371.18" y="156.98" width="9.6" height="43.52" style="fill:#010101;fill-rule:nonzero;stroke-width:0.87px;stroke-linejoin:miter;stroke:#010101;"/><path d="M387.66,157.14l9.6,0l17.6,26.64l0.16,0l0,-26.64l9.6,0l0,43.52l-9.6,0l-17.6,-26.64l-0.16,0l0,26.64l-9.6,0l0,-43.52Z" style="fill:#010101;fill-rule:nonzero;stroke-width:0.87px;stroke-linejoin:miter;stroke:#010101;"/><path d="M468.22,176.26c-0.16,6.32 -0.56,11.84 -3.68,17.2c-3.68,5.92 -9.04,8.56 -15.2,8.56c-11.68,0 -19.6,-9.28 -19.6,-22.96c0,-14.08 8.16,-23.36 20,-23.36c7.6,0 13.52,4.08 16.64,12.24l-9.04,4.48c-1.28,-4.08 -4.08,-6.88 -8,-6.88c-6.32,0 -9.6,7.04 -9.6,13.68c0,6.64 3.52,13.52 9.84,13.52c4.08,0 7.44,-2.56 7.76,-7.6l-7.76,0l0,-8.88l18.64,0Z" style="fill:#010101;fill-rule:nonzero;stroke-width:0.87px;stroke-linejoin:miter;stroke:#010101;"/><path d="M482.86,166.58l0,7.2l10.72,0l0,9.6l-10.72,0l0,7.44l11.52,0l0,9.6l-21.12,0l0,-43.52l21.12,0l0,9.6l-11.52,0.08Z" style="fill:#010101;fill-rule:nonzero;stroke-width:0.87px;stroke-linejoin:miter;stroke:#010101;"/><path d="M531.58,200.5l-12.08,0l-9.04,-16.64l-0.16,0l0,16.64l-9.6,0l0,-43.52l14.48,0c7.2,0 12.8,4.08 12.8,13.36c0,5.92 -2.8,11.12 -8.16,12.24l11.76,17.92ZM510.46,176.58l0.96,0c3.12,0 6.64,-0.72 6.64,-5.36c0,-4.8 -3.52,-5.36 -6.64,-5.36l-0.96,0l0,10.72Z" style="fill:#010101;fill-rule:nonzero;stroke-width:0.87px;stroke-linejoin:miter;stroke:#010101;"/></g></svg>