<?xml version="1.0" encoding="UTF-8"?> <!-- Generator: Adobe Illustrator 25.2.1, SVG Export Plug-In . SVG Version: 6.00 Build 0) --> <svg xmlns="http://www.w3.org/2000/svg" xmlns:xlink="http://www.w3.org/1999/xlink" version="1.1" id="Calque_1" x="0px" y="0px" viewBox="0 0 450 479.9" style="enable-background:new 0 0 450 479.9;" xml:space="preserve"> <style type="text/css"> .st0{fill:#FFFFFF;} </style> <path class="st0" d="M400.7,65.6c-30-8.1-59.4,4-75,30.9l-22.2,38.2L251,44.3c-20.7-35.7-59.8-51.8-99.7-41 c-7.1,1.9-13.8,4.6-20,7.9c-19.3-11.1-42.5-14.3-66-8C25.7,13.8,0,47.4,0,88.8v302.3c0,41.4,25.7,75,65.4,85.6 c8,2.1,16,3.2,23.8,3.2c15.1,0,29.5-3.9,42.1-11.2c6.2,3.3,12.9,6,20,7.9c8.2,2.2,16.3,3.3,24.3,3.3c30.8,0,58.9-16,75.3-44.3 l52.5-90.3l22.2,38.2c12.4,21.3,33.5,33.4,56.7,33.4c6,0,12.1-0.8,18.3-2.5c30-8.1,49.3-33.3,49.3-64.4V130 C450,98.9,430.6,73.7,400.7,65.6z M155.6,18.8c6-1.6,12.6-2.6,19.6-2.6c21.8,0,46.4,9.3,62,36.2l57.1,98.2l-32.4,55.9 c-1.1,1.9-2.2,3.9-3.1,6c-1.9-5.8-4.4-11.5-7.5-17L164.1,44.3c-5-8.6-11-16.1-17.9-22.3C149.3,20.7,152.5,19.6,155.6,18.8z M303.5,166.6l21.5,36.9c13.1,22.5,13.1,50.4,0,72.9l-21.5,36.9l-27.9-47.9c-9.1-15.7-9.1-35.2,0-50.9L303.5,166.6z M131.2,449.6 c-16.2-11.6-29.4-30.8-29.4-58.5V88.8c0-27.7,13.2-46.9,29.4-58.5c7.1,5.4,13.5,12.7,18.9,22l87.1,151.1c13,22.5,13,50.4,0,72.9 l-87.1,151.1C144.8,436.9,138.3,444.1,131.2,449.6z M69.6,461.2C44.9,454.6,16,432.3,16,391.1V88.8c0-41.2,28.8-63.5,53.5-70.1 c5.8-1.6,12.3-2.5,19.1-2.5c8.9,0,18.4,1.6,27.4,5.4C97,37.8,85.8,61.6,85.8,88.8v302.3c0,27.2,11.2,51.1,30.3,67.3 C100.1,465,83.1,464.9,69.6,461.2z M237.2,427.5c-20.6,35.5-56.9,40.3-81.6,33.6c-3.1-0.8-6.2-1.9-9.4-3.2 c6.9-6.2,12.9-13.7,17.9-22.4l87.1-151.1c3.1-5.4,5.6-11.1,7.5-17c0.9,2,1.9,4,3.1,6l32.4,55.9L237.2,427.5z M434,350 c0,28.6-20.2,44.2-37.5,48.9c-17.3,4.7-42.6,1.3-56.9-23.5l-26.8-46.1l26-44.8c15.9-27.5,15.9-61.6,0-89l-26.1-44.8l26.8-46.1 c10.9-18.8,28.1-25.2,43.3-25.2c4.8,0,9.5,0.7,13.7,1.8c17.3,4.7,37.5,20.2,37.5,48.9V350z"></path> </svg> 