<?xml version="1.0" encoding="UTF-8"?>
<svg id="Layer_2" data-name="Layer 2" xmlns="http://www.w3.org/2000/svg" viewBox="0 0 1409.42 247.6">
  <defs>
    <style>
      .cls-1 {
        fill: #e41366;
        stroke-width: 0px;
      }
    </style>
  </defs>
  <g id="Layer_1-2" data-name="Layer 1">
    <path class="cls-1" d="m0,225.12c63.44,0,126.89.02,190.33,0,192.39-.04,384.79-.13,577.18-.12,104.06,0,208.11.16,312.17.24,1.87,0,3.74.04,5.61.06,3.18.04,4.83,1.55,4.8,4.84-.03,3.74-.16,7.5.14,11.22.41,5.07-1.88,6.26-6.62,6.24-37.24-.19-74.49-.17-111.73-.17-321.34,0-642.69.02-964.03.03-2.62,0-5.24.07-7.86.11,0-7.48,0-14.97,0-22.45Z"/>
    <path class="cls-1" d="m766.27,194.93c-16.96-.9-42.79-2.1-44.79-23.54-.82-8.76,1.07-17.16,9.15-22.75,4.68-3.24,4.64-3.52.25-7.07-6.8-5.49-8.75-17.76-2.61-25.45,5.34-6.7,6.58-11.39,1.62-19.52-7.04-11.53-2.67-28.09,7.18-37.52,8.99-8.59,22.06-11.41,34.16-11.39,14.24.03,28.54.94,42.79,1.19,4.09.07,5.8,1.85,5.58,5.84-.11,2.05.02,4.11-.03,6.17-.2,8.33-.25,8.49-8.52,9.45-2.94.34-3.86,1.58-3.52,4.38.38,3.15.47,6.33.74,9.49.98,11.73-4.54,21.97-14.62,27.91-11.86,7-23.57,5.91-36.7,4.92-2.76-.21-6-2.54-7.35,2.08-1.38,4.72.75,10.14,4.8,10.92,4.93.96,9.98,1.44,14.99,1.81,12.37.89,27.12-.21,38.1,6.59,13.64,8.45,14.33,29.09,4.73,40.79-11.06,13.48-28.6,16.62-45.95,15.7Zm2.29-45.33c-.06.28-.12.57-.17.85-3.17,0-6.43-.46-9.49.11-4.74.87-9.38,3.05-10.07,8.33-.67,5.15-2.12,11.21,3.06,15.08,10.23,7.65,29.45,4.61,37.2-5.55,4.55-5.95,3.24-12.33-3.78-14.92-5.33-1.97-11.15-2.64-16.75-3.89Zm15.57-66.92c1.64-11.41-7.64-15.52-15.7-16.13-9.61-.73-17.01,6.3-17.26,15.83-.31,11.29,4.54,16.8,15.15,17.22,12.94.51,17.41-3.74,17.82-16.91Z"/>
    <path class="cls-1" d="m679.28,47.72c9.6.42,18.94,1.24,26.86,1.12,4.69-.07,7.03,1.74,6.7,6.62-.15,2.23.07,4.49,0,6.73-.2,6.87-.58,7.42-7.67,7.88-3.43.22-4.52,1.63-4.34,4.91.26,4.85.17,9.71.24,14.57.1,7.01-3.06,12.21-7.95,17.18-11.31,11.5-25,13.12-39.88,11.09-1.11-.15-2.2-.58-3.31-.6-2.9-.03-6.87-3.48-8.16,2.13-1.49,6.46.6,10.68,6.14,11.25,8.72.9,17.52.99,26.28,1.62,15.34,1.1,31.3,2.65,36.37,19.7,2.95,9.91,1.4,19.22-5.96,27.62-7.5,8.56-17.22,11.62-27.56,13.53-14.91,2.75-29.77,1.94-44.49-1.8-9.76-2.48-16.56-8.31-18.49-18.19-1.95-9.97,1.78-18.49,9.87-24.65,3.68-2.8,4.26-4.31.02-7.22-6.9-4.74-7.79-19.91-2.04-27.1.58-.73,1.26-1.38,1.91-2.05,5.45-5.64,5.17-5.43.5-11.71-7.12-9.56-6.35-20.61-1.96-30.38,9.84-21.93,34.09-23.25,56.93-22.26Zm-21.38,129.73c12.9.68,20.13-2.52,24.69-10.21,2.73-4.6,2.2-10.3-1.98-12.41-10.18-5.14-21.14-6.27-32.03-3.1-6.64,1.93-8.9,7.03-8.17,14.17.72,7.01,2.94,9.35,10.59,10.77,2.75.51,5.56.64,6.9.78Zm19.37-94.59c1.37-11.55-7.51-15.69-16.89-16.23-9.54-.54-16.93,6.99-16.98,16.26-.06,10.84,6.05,16.81,17.17,16.78,11.56-.04,16.62-5.13,16.7-16.81Z"/>
    <path class="cls-1" d="m389.49,78.07c0-22.63,0-45.27,0-67.9,0-7.82.4-8.27,8.19-8.29,4.3-.01,8.61-.06,12.91.11,5.97.23,6.81,1.08,6.82,7,0,14.59-.12,29.18-.09,43.77,0,1.73.64,3.45.99,5.18,1.46-.71,3.15-1.15,4.33-2.18,10.01-8.72,25.14-11.61,37.71-7.4,16.19,5.42,21.15,22.63,22.37,38,1.62,20.43.03,41.33.26,61.81.06,4.99-2.13,6.63-6.77,6.42-4.86-.22-9.75-.4-14.59-.09-4.85.31-6.69-1.43-6.63-6.37.17-16.08.09-32.17-.06-48.26-.05-5.6-.36-11.22-.94-16.78-.71-6.77-4.99-10.03-11.32-12.29-8.26-2.96-19.23,5.22-22.89,12.09-4.58,8.6-1.99,20.38-2.03,29.77-.04,11.16-.3,22.31-.35,33.47-.04,7.83-.41,8.21-8.26,8.2-4.3,0-8.61-.15-12.91-.11-6.21.07-6.75-.24-6.75-6.57,0-23.19,0-46.39,0-69.58Z"/>
    <path class="cls-1" d="m1128.03,10.43c7.99.26,16.11,1.88,24.08,4.07,7.91,2.18,8.77,4.06,8.84,12.11.02,2.06.01,4.12-.01,6.17-.13,9.71-.59,9.66-9.37,6.03-9.43-3.9-22.4-8.84-32.77-5.04-12.95,4.74-12.14,22.64-.62,28.85,17.09,9.21,40.41,14.77,48.71,34.15,21.03,49.13-51.43,77-85.4,50.88-1.64-1.26-3.62-3.31-3.74-5.11-.39-5.94-.11-11.93.13-17.89.13-3.29,2.12-3.63,4.62-2.14,1.93,1.15,3.79,2.4,5.63,3.69,13.15,9.19,27.42,9.77,42.37,5.66,10.39-2.86,11.38-19.27,4.95-26.36-4.58-5.04-11.24-7.3-17.06-10.36-7.21-3.8-14.34-7.79-21.53-11.64-8.37-4.48-13.46-12.22-16.26-20.46-5.72-16.82,1.85-33.9,15.94-43.84,9.17-6.47,20.36-9.13,31.48-8.77Z"/>
    <path class="cls-1" d="m65.45,10.68c8.67.53,17.39,2.34,25.28,4.38,5.73,1.48,8.41,5.79,7.86,11.92-.29,3.16-.05,6.37-.4,9.52-.64,5.69-1.74,6.38-6.69,3.62-8.69-4.87-18-7.32-27.86-7.72-6.95-.28-13.06,1.62-16.58,8.25-9.43,17.76,14.82,25.03,25.94,30.96,12.07,6.44,26.39,13.42,31.55,27.31,6.02,16.19,0,35-12.77,46.16-11.22,9.8-26.27,12.23-40.73,11.44-11.45-.63-34.98-1.86-36.12-16.79-.34-4.46-.23-8.97-.02-13.44.18-3.95,2.18-4.89,5.58-2.71,2.2,1.41,4.44,2.79,6.71,4.08,9.61,5.47,21.47,7.95,32.47,6.07,9.31-1.6,21.07-9.26,17.67-20.22-1.3-4.18-4.43-7.58-8.06-10.03-13.2-8.91-28.76-13.18-40.63-24.5-13.93-13.29-16.4-36.48-4.66-52.34,10.15-13.7,25.72-16.94,41.45-15.97Z"/>
    <path class="cls-1" d="m923.25,148.73c-6.06,2.07-12.03,5.46-18.21,5.94-14.4,1.11-34.45,3.28-48.3-2.64-12.2-5.21-18.88-17.14-22.02-29.49-7.29-28.67,4.67-73.65,40.23-75.37,19.91-.97,39.83,1.95,48.86,21.95,4.8,10.62,5.25,22.06,4.93,33.53-.09,3.15-1.53,4.94-4.66,5.15-3.35.23-6.72.41-10.08.41-15.33.01-30.66-.05-45.99-.07-6.69-.01-7.67.97-6.2,7.57,6.28,28.2,33.24,20.13,54.16,16.43,8.11-1.44,8.51-1.31,8.22,6.72-.12,3.33-.69,6.64-1.05,9.96l.1-.09Zm-40.63-57.05c3.62-.04,7.22.05,10.74.52,2.74.37,5.94.2,7.7-1.94,1.17-1.43,1.4-3.4,1.33-5.25-.28-6.96-4.48-13.63-10.63-16.89s-14.03-3-19.95.67-9.65,10.61-9.46,17.57c.04,1.56.33,3.24,1.47,4.32,1.26,1.19,3.18,1.28,4.91,1.29,4.56.04,9.24-.24,13.89-.29Z"/>
    <path class="cls-1" d="m564.79,107.84c-8.42.14-16.84.26-25.26.26-5.68,0-6.42.91-5.77,6.68,1.69,15.06,7.46,22.06,24.78,21.71,9.79-.19,19.56-2.73,29.29-4.5,8.09-1.48,8.31-1.47,8.27,6.65,0,1.68-.04,3.37-.1,5.05-.16,4.94-2.53,8.16-7.47,9.1-23.46,4.44-58.42,9.97-74.42-13.01-12.95-18.6-12.05-47.86-2.32-67.65,15-30.51,67.67-36.27,83.58-3.64,5.15,10.55,6.06,21.86,6.14,33.35.03,3.73-1.63,5.61-5.33,5.62-10.47.02-20.93.22-31.4.39Zm-11.45-15.12c5.24-.12,10.46-.56,15.69-.85,1.55-.09,3.91-1.14,4.4-2.35,2.41-5.98-2.48-17.94-8.07-21.01-8.24-4.52-16.03-3.82-23.76,1.39-6.88,4.63-6.71,12.07-7.86,18.93-.6,3.58,9.84,4.11,19.6,3.88Z"/>
    <path class="cls-1" d="m1274.6,113.39c-.14,11.6-.52,23.23-.24,34.74.12,4.86-1.64,6.91-6.42,6.68-5.55-.27-16.8,2.52-16.94-5.84-.07-3.83-3.35-3.9-4.92-1.49-8.6,13.18-36.34,11.49-48.26,4.45-12.16-7.17-14.89-20.92-12.24-34.18,2.45-12.27,12.81-19.9,24.8-21.68,9.95-1.48,20.05-1.92,30.07-2.97,6.64-.7,6.89-1.15,6.29-7.66-1.34-14.62-3.9-17.05-18.74-17.51-10.59-.33-20.14,3.48-29.59,7.65-6.11,2.7-6.74,2.34-8.05-4.21-1.78-8.88-.8-11.3,6.88-16.39,12.95-8.58,27.44-8.85,42.16-7.64,2.6.21,5.18.74,7.76,1.16,19.11,3.15,25.6,19.65,26.84,37.07.66,9.22.7,18.51.59,27.82Zm-26.99,6.54c.44-5.55-1.61-10.77-7.99-10.99-10.65-.37-26.94.51-28.41,13.94-2.59,23.67,34.87,16.38,36.4-2.95Z"/>
    <path class="cls-1" d="m210.29,115.01c-.73,10.99-.63,22.06-.27,33.08.28,8.48-10.5,7.89-16.68,6.73-3.6-.68-4.36-2.53-5.8-5.15-.82-1.5-.29-6.44-3.87-2.67-9.27,9.75-25.42,11.91-38.02,9.07-17.24-3.88-26.22-18.48-23.69-35.94,2.01-13.89,7.83-20.46,25.01-23.92,9.28-1.86,18.71-2.07,28.12-2.73,6.31-.44,8.72-.76,8.45-7.6-.57-14.58-2.33-16.5-16.98-17.8-10-.89-19.26,1.95-28.15,6.2-10.39,4.96-11.4,4.24-12.17-7.28-.33-4.92,1.43-8.11,5.44-10.73,21.39-13.96,74.11-18.12,76.93,17.27.99,12.43,3.04,24.98,1.97,37.48-.11,1.33-.21,2.66-.3,3.99Zm-37.12-7.25c-6.73-.21-16.32,3.25-21.27,7.83-4.27,3.94-6.1,11.1-3.07,16.35,6.84,11.86,23.17,6.23,31.27-.91s5.64-22.75-6.74-23.26c-.06,0-.12,0-.18,0Z"/>
    <path class="cls-1" d="m337.69,156.55c-12.11-1.09-23.18-.96-33.19-9.06-31.39-25.39-21.1-85.25,16.96-98.71,17.38-6.15,57.53-.65,46.27,27.05-1.26,3.1-4.16,3.19-7.96,1-7.47-4.32-16.87-8.09-25.63-6.07-23.25,5.37-24.37,51.94-5.18,62.57,9.88,5.47,22.6-.1,30.86-5.98,1.21-.86,2.26-1.99,3.54-2.73,2.82-1.63,4.91-.9,5,2.5.18,6.39,1.91,17.36-4.02,21.81-7.87,5.91-17.2,6.76-26.67,7.63Z"/>
    <path class="cls-1" d="m240.47,77.97c-.1-22.98-.24-45.97-.24-68.95,0-6.9.4-7.25,7.34-7.14,4.67.07,9.35.23,14.02.25,3.71.02,5.36,1.6,5.3,5.48-.73,46.32-.07,92.7-.09,139.03,0,7.81-.05,7.85-7.7,7.87-4.11.01-8.24-.27-12.33,0-4.46.3-6.36-1.08-6.33-5.91.18-23.54.13-47.09.03-70.63Z"/>
    <path class="cls-1" d="m1383.92,78.68c-.05-23.18-.14-46.35-.14-69.53,0-6.19.92-7.03,7.2-6.88,4.11.1,8.24.4,12.32.07,4.74-.38,6.15,1.44,6.13,6.09-.18,41.49-.2,82.99-.2,124.48,0,5.42-.06,10.84.03,16.26.06,3.81-1.65,5.4-5.46,5.22-4.85-.22-9.73-.42-14.57-.15-4.22.23-5.45-1.3-5.42-5.47.18-23.36.17-46.73.12-70.09Z"/>
    <path class="cls-1" d="m979.75,122.67c.2,8.6.55,17.23.69,25.8.06,3.95-1.41,5.93-5.51,5.92-5.24-.02-10.48.05-15.71.3-4.67.22-6.65-1.45-6.63-6.46.12-27.5-.1-54.99-.1-82.49,0-3.93.08-7.86-.04-11.78-.1-3.27,1.39-4.92,4.57-5.06,2.61-.12,5.24-.08,7.85-.16,8.24-.25,11.64-.03,11.14,9.37-.06,1.22,1.13,2.5,1.74,3.75,1.18-.81,2.44-1.53,3.52-2.45,4.33-3.7,8.36-7.81,13-11.05,2.08-1.45,5.34-1.62,8.08-1.64,11.42-.11,13.7,2.27,13.64,13.49,0,.75,0,1.5-.01,2.24-.1,11.72-.59,12.18-12.1,9.91-4.78-.94-8.87,0-12.49,3.25-9.24,8.29-11.64,20.62-11.77,32.51-.05,4.84.01,9.69.12,14.55Z"/>
    <path class="cls-1" d="m1303.08,101.69c-.02-15.7-.13-31.41-.32-47.1-.05-4.58,1.43-6.56,6.16-6.1,3.41.33,6.84.28,10.26.3,2.38.01,4.97.08,6.35,2.36,1.46,2.4.36,7.03,2.4,8.93,1.45,1.34,4.12-1.42,5.49-2.39,1.04-.74,1.74-1.95,2.69-2.83,7-6.49,14.36-10,24.62-6.36,7.96,2.82,4.84,13.03,4.74,19.43-.06,4.04-2.37,5.64-6.25,5.27-.19-.02-.39.02-.56-.05-7.47-2.78-15.2-.11-20.58,5.47-6.73,6.98-7.94,16.74-8.25,25.95-.5,14.37.56,28.71.58,43.07,0,6.35-.28,6.67-6.56,6.72-5.05.04-10.1-.15-15.14.12-4.26.22-5.98-1.17-5.92-5.69.21-15.69.3-31.39.28-47.1Z"/>
    <path class="cls-1" d="m1214.29,0c6.13-.09,12.54.96,15.47,5.41,4.82,7.32,9.05,15.04,13.4,22.66,3.02,5.29,2.39,6.32-3.73,6.49-2.61.07-5.24-.12-7.85-.03-5.35.18-8.86-2.13-12.04-6.57-5.3-7.42-11.49-14.21-17.3-21.27-2.98-3.61-2.54-5.14,1.99-5.78,2.68-.38,6.32-.85,10.07-.91Z"/>
  </g>
</svg>