<svg class="m-auto w-auto logo fill-current h-full" id="logo" width="597.469" height="217.086" viewBox="0 0 158.08 57.437" xmlns="http://www.w3.org/2000/svg">
  <path class="bg-reverse" style="fill:#3c3c3b;fill-opacity:1;fill-rule:nonzero;stroke:none;stroke-width:1.33333"
    d="M258.627 54.084v25.344h25.342v78.66h25.344v-78.66h25.345V54.084h-76.031zm151.52 0c-42.975 0-73.883 22.165-73.883 71.771v32.268h25.632v-15.078h22.618v15.078h25.632V54.084zm49.695 0c-10.403 0-13.268.304-15.832.906-15.078 3.167-23.069 15.529-23.069 30.305 0 8.444 2.56 15.833 8.14 21.562 5.126 5.28 11.31 7.24 24.88 11.762 3.617 1.205 7.086 3.92 7.086 7.992 0 3.618-2.864 6.633-9.197 6.633h-30.61v24.88h33.625c17.49 0 31.815-12.817 31.815-31.968 0-8.894-3.016-17.186-9.198-22.465-5.578-4.825-13.871-7.236-24.125-10.252-4.674-1.358-6.785-4.222-6.785-7.992 0-3.62 1.96-6.484 7.239-6.484h24.74V54.084h-18.71zm85.787 0c-28.63 0-51.838 23.21-51.838 51.84 0 28.63 23.209 51.84 51.838 51.84V132.42c-14.632 0-26.494-11.863-26.494-26.496s11.862-26.496 26.494-26.496c14.633 0 26.496 11.863 26.496 26.496 0 14.039-10.92 25.522-24.729 26.431l50.073 44.249v-25.342h-26.701c15.92-8.848 26.7-25.832 26.7-45.338 0-28.63-23.208-51.84-51.84-51.84zM384.514 84.09v34.076h-22.317c1.507-16.736 8.445-28.647 22.317-34.076z" transform="matrix(.26458 0 0 .26458 0 0)"/>
  <path class="bg-reverse" d="M181.11 152.197a6.86 6.86 0 1 1 0-13.72 6.86 6.86 0 0 1 0 13.72m0-20.28c-7.413 0-13.422 6.008-13.422 13.42 0 7.413 6.009 13.422 13.421 13.422 7.413 0 13.422-6.009 13.422-13.421 0-7.413-6.01-13.422-13.422-13.422" style="fill:#3c3c3b;fill-opacity:1;fill-rule:nonzero;stroke:none;stroke-width:.352778" transform="translate(-151.84 -116.743)"/>
  <path d="m187.28 165.553 4.152 4.152-4.475 4.476-4.153-4.153c-.97-.97-2.28-1.11-2.802-.588l-4.74 4.74-4.475-4.475 4.74-4.74c3.078-3.078 8.35-2.815 11.752.588" style="fill:#9a9a99;fill-opacity:1;fill-rule:nonzero;stroke:none;stroke-width:.352778" transform="translate(-151.84 -116.743)"/>
  <path d="m166.584 129.642-5.52-2.009 2.166-5.947 5.518 2.009c1.29.469 2.535.042 2.788-.652l2.293-6.3 5.947 2.165-2.292 6.3c-1.49 4.09-6.379 6.08-10.9 4.434" style="fill:#c5636d;fill-opacity:1;fill-rule:nonzero;stroke:none;stroke-width:.352778" transform="translate(-151.84 -116.743)"/>
  <path class="bg-reverse" style="fill:#3c3c3b;fill-opacity:1;fill-rule:nonzero;stroke:none;stroke-width:1.33333" d="M364.023 166.252v22.64h2.784v-22.64h-2.784zm5.774 0v22.64h2.783v-22.64h-2.783zm144.652.031c-4.233 0-7.68 3.112-7.68 7.465v.03h-2.265v2.722h2.266l.029 12.424h2.691l-.031-12.424h5.02v-2.723h-5.02c0-2.78 2.3-4.656 4.99-4.656v-2.838zm-230.324 1.418v2.783h6.982l-.029 18.438h2.992l-.06-18.438 7.101.03V167.7h-16.986zm75.395.244a1.44 1.44 0 0 0-1.422 1.42c0 .788.636 1.42 1.422 1.42.754 0 1.421-.632 1.421-1.42 0-.754-.667-1.42-1.421-1.42zm159.162 0c-.786 0-1.42.666-1.42 1.42 0 .788.634 1.42 1.42 1.42.754 0 1.42-.632 1.42-1.42 0-.754-.666-1.42-1.42-1.42zm-217.842 5.803v15.145h2.723v-7.586c.24-2.571 2.054-4.746 4.683-4.746v-2.66c-1.815 0-3.385.665-4.683 1.722v-1.875h-2.723zm20.527 0v1.846a6.988 6.988 0 0 0-4.594-1.694c-3.99 0-7.255 3.357-7.255 7.467 0 4.2 3.265 7.526 7.255 7.526a6.988 6.988 0 0 0 4.594-1.694v1.694h2.75v-15.145h-2.75zm31.197 0v1.846a6.993 6.993 0 0 0-4.595-1.694c-3.99 0-7.254 3.357-7.254 7.467 0 4.2 3.263 7.526 7.254 7.526a6.993 6.993 0 0 0 4.595-1.694v1.694h2.748v-15.145h-2.748zm30.473 0c-4.019 0-7.373 3.386-7.373 7.62 0 4.23 3.354 7.583 7.373 7.583 2.66 0 4.99-1.359 6.29-3.535h-3.749c-.695.513-1.544.787-2.54.787-2.114 0-3.928-1.452-4.472-3.51h11.785c.093-.39.124-.812.124-1.326 0-4.233-3.327-7.619-7.438-7.619zm10.008 0v15.145h2.723v-7.586c.238-2.571 2.054-4.746 4.683-4.746v-2.66c-1.814 0-3.385.665-4.683 1.722v-1.875h-2.723zm26.812 0c-4.018 0-7.373 3.386-7.373 7.62 0 4.23 3.355 7.583 7.373 7.583 2.66 0 4.99-1.359 6.29-3.535h-3.749c-.694.513-1.543.787-2.54.787-2.114 0-3.927-1.452-4.471-3.51h11.787c.092-.39.12-.812.12-1.326 0-4.233-3.326-7.619-7.437-7.619zm114.907 0v1.846a6.993 6.993 0 0 0-4.596-1.694c-3.99 0-7.254 3.357-7.254 7.467 0 4.2 3.263 7.526 7.254 7.526a6.993 6.993 0 0 0 4.596-1.694v1.694h2.75v-15.145h-2.75zm43.863 0c-4.019 0-7.373 3.386-7.373 7.62 0 4.23 3.354 7.583 7.373 7.583 2.66 0 4.99-1.359 6.289-3.535h-3.748c-.695.513-1.544.787-2.541.787-2.116 0-3.929-1.452-4.473-3.51H585.943c.09-.39.121-.812.121-1.326 0-4.233-3.326-7.619-7.437-7.619zm-251.455.03 5.984 13.935.514 1.21.031-.03v.03l.27-.757 6.197-14.389h-2.84l-3.627 8.256-3.629-8.256h-2.9zm31.017 0v15.083h2.721v-15.084h-2.72zm72.311 0v15.115h2.752v-9.248c.695-1.815 2.204-3.026 4.139-3.026 2.057 0 3.78 1.421 4.353 3.445v8.8h2.75v-8.042c-.332-3.87-3.323-7.045-7.103-7.045-1.54 0-2.96.576-4.139 1.452v-1.452H430.5zm57.62 0v15.115h2.751v-9.248c.695-1.815 2.204-3.026 4.139-3.026 2.057 0 3.78 1.421 4.353 3.445v8.8h2.752v-8.042c-.334-3.87-3.325-7.045-7.105-7.045-1.54 0-2.96.576-4.139 1.452v-1.452h-2.752zm29.234 0v15.083h2.718v-15.084h-2.718zm23.214 0v15.115h2.752v-9.248c.695-1.815 2.206-3.026 4.14-3.026 2.058 0 3.78 1.421 4.352 3.445v8.8h2.75v-8.042c-.332-3.87-3.321-7.045-7.101-7.045-1.54 0-2.962.576-4.14 1.452v-1.452h-2.753zm-76.634.03c-4.204 0-7.555 3.325-7.555 7.499 0 4.2 3.35 7.556 7.555 7.556 1.54 0 2.991-.484 4.293-1.422l.302-.123-1.27-2.69-.333.337a4.79 4.79 0 0 1-2.992 1.086 4.735 4.735 0 0 1-4.747-4.744c0-2.571 2.116-4.717 4.747-4.717 1.057 0 2.085.334 2.902 1.027l.424.305 1.27-2.602-.303-.152a7.393 7.393 0 0 0-4.293-1.36zm100.818 0c-4.201 0-7.557 3.325-7.557 7.499 0 4.2 3.356 7.556 7.557 7.556 1.54 0 2.991-.484 4.291-1.422l.303-.123-1.27-2.69-.332.337a4.792 4.792 0 0 1-2.992 1.086 4.735 4.735 0 0 1-4.746-4.744c0-2.571 2.115-4.717 4.746-4.717 1.057 0 2.086.334 2.9 1.027l.424.305 1.27-2.602-.303-.152a7.384 7.384 0 0 0-4.291-1.36zm-86.973.003c-4.05 0-7.343 3.352-7.343 7.525 0 4.2 3.293 7.527 7.343 7.527 4.022 0 7.315-3.327 7.315-7.527 0-4.173-3.293-7.525-7.315-7.525zm-94.742 2.689c2.147 0 3.993 1.511 4.535 3.506h-9.006c.574-2.024 2.324-3.506 4.471-3.506zm36.82 0c2.147 0 3.993 1.511 4.536 3.506h-9.006c.573-2.024 2.324-3.506 4.47-3.506zm158.77 0c2.147 0 3.992 1.511 4.535 3.506h-9.008c.574-2.024 2.326-3.506 4.473-3.506zm-100.848.06c2.57 0 4.655 2.145 4.655 4.776 0 2.63-2.084 4.775-4.655 4.775-2.6 0-4.683-2.144-4.683-4.775 0-2.63 2.083-4.775 4.683-4.775zm-161.006.088c2.328 0 4.262 1.786 4.594 4.112v1.271c-.332 2.326-2.266 4.112-4.594 4.112-2.54 0-4.625-2.146-4.625-4.776 0-2.57 2.085-4.719 4.625-4.719zm31.196 0c2.328 0 4.264 1.786 4.595 4.112v1.271c-.332 2.326-2.267 4.112-4.595 4.112-2.54 0-4.623-2.146-4.623-4.776 0-2.57 2.083-4.719 4.623-4.719zm182.199 0c2.328 0 4.264 1.786 4.596 4.112v1.271c-.332 2.326-2.268 4.112-4.596 4.112-2.54 0-4.623-2.146-4.623-4.776 0-2.57 2.083-4.719 4.623-4.719z" transform="scale(.26458)"/>
  <path d="m195.635 129.642 5.52-2.009-2.166-5.947-5.518 2.009c-1.29.469-2.535.042-2.788-.652l-2.293-6.3-5.947 2.165 2.292 6.3c1.49 4.09 6.379 6.08 10.9 4.434" style="fill:#80b9e5;fill-opacity:1;fill-rule:nonzero;stroke:none;stroke-width:.352778" transform="translate(-151.84 -116.743)"/>
  <path d="m160.282 146.53-4.811 3.37-3.63-5.185 4.81-3.369c1.124-.786 1.49-2.052 1.066-2.657l-3.845-5.491 5.184-3.63 3.845 5.49c2.497 3.567 1.322 8.713-2.619 11.473" style="fill:#096383;fill-opacity:1;fill-rule:nonzero;stroke:none;stroke-width:.352778" transform="translate(-151.84 -116.743)"/>
  <path d="m169.054 162.956-.819 5.816-6.267-.882.818-5.816c.191-1.358-.485-2.488-1.217-2.591l-6.638-.934.882-6.267 6.638.934c4.311.606 7.273 4.976 6.603 9.74" style="fill:#5bbdbb;fill-opacity:1;fill-rule:nonzero;stroke:none;stroke-width:.352778" transform="translate(-151.84 -116.743)"/>
  <path d="m201.918 146.53 4.811 3.37 3.63-5.185-4.811-3.369c-1.124-.786-1.489-2.052-1.065-2.657l3.845-5.491-5.184-3.63-3.845 5.49c-2.497 3.567-1.322 8.713 2.619 11.473" style="fill:#00908f;fill-opacity:1;fill-rule:nonzero;stroke:none;stroke-width:.352778" transform="translate(-151.84 -116.743)"/>
  <path d="m193.146 162.956.819 5.816 6.267-.882-.818-5.816c-.192-1.358.484-2.488 1.216-2.591l6.639-.934-.882-6.267-6.639.934c-4.31.606-7.272 4.976-6.602 9.74" style="fill:#dad654;fill-opacity:1;fill-rule:nonzero;stroke:none;stroke-width:.352778" transform="translate(-151.84 -116.743)"/>
</svg>