<?xml version="1.0" encoding="utf-8"?>
<!-- Generator: Adobe Illustrator 23.1.1, SVG Export Plug-In . SVG Version: 6.00 Build 0)  -->
<svg version="1.1" id="Calque_1" xmlns="http://www.w3.org/2000/svg" xmlns:xlink="http://www.w3.org/1999/xlink" x="0px" y="0px"
	 viewBox="0 0 180 112" style="enable-background:new 0 0 180 112;" xml:space="preserve">
<style type="text/css">
	.st0{fill:#7B7D7C;}
	.st1{fill:#90BA0B;}
	.st2{fill:#D67200;}
</style>
<g>
	<g>
		<g>
			<path class="st0" d="M0,62h6.4l6,21.1L18.5,62h6.3l-9.6,28.2H9.7L0,62z"/>
			<path class="st0" d="M27.8,62h5.8v28.2h-5.8V62z"/>
			<path class="st0" d="M39.6,62h5.8V85h13.7v5.2H39.6V62z"/>
			<path class="st0" d="M62.3,62h5.8V85h13.7v5.2H62.3V62z"/>
			<path class="st0" d="M79,62h6.4l6,21.1L97.5,62h6.3l-9.6,28.2h-5.6L79,62z"/>
			<path class="st0" d="M106.6,62H127v4.9h-14.7v6h13.5v4.8h-13.5V85h15.4v5.2h-21.1V62z"/>
			<path class="st0" d="M132.1,62h13.7c6.1,0,9,2.5,9,8c0,3.4-1.5,5.8-4.2,6.7c2.7,0.9,3.4,2.7,3.5,6.1l0.1,3.3c0,1.6,0,2.6,1.1,3.2
				v0.9H149c-0.4-0.8-0.6-2-0.7-3.5l-0.1-3c-0.1-3.3-1-4.5-4.2-4.5h-6.1v11h-5.8V62z M144.7,74.3c2.9,0,4.3-1.1,4.3-3.7
				c0-2.4-1.3-3.7-4-3.7h-7.1v7.4H144.7z"/>
			<path class="st0" d="M165.9,67h-8.3v-5H180v5h-8.3v23.1h-5.8V67z"/>
		</g>
		<g>
			<g>
				<path class="st0" d="M0.9,100h5.3v1.1H2.1v3.4h3.8v1.1H2.1v3.9h4.1v1.1H0.9V100z"/>
				<path class="st0" d="M10.4,100H12l3.7,9.1l-0.1-9.1h1.1v10.6h-1.5l-3.7-9.4l0.1,9.4h-1.1V100z"/>
				<path class="st0" d="M23.1,101.1h-2.7V100h6.5v1.1h-2.5v9.5h-1.2V101.1z"/>
				<path class="st0" d="M30.5,100h3c2.2,0,3.3,0.9,3.3,2.7c0,1.4-0.6,2.3-2,2.6c1.2,0.1,1.7,0.7,1.9,2.1c0.2,1.6,0,2.7,0.6,3.2
					h-1.5c-0.3-0.5-0.2-1.5-0.4-2.8c-0.1-1.5-0.7-1.9-2.3-1.9h-1.5v4.7h-1.2V100z M33.1,104.8c1.6,0,2.4-0.6,2.4-2
					c0-1.3-0.7-1.8-2.2-1.8h-1.7v3.8H33.1z"/>
				<path class="st0" d="M41.3,100h5.3v1.1h-4.1v3.4h3.8v1.1h-3.8v3.9h4.1v1.1h-5.3V100z"/>
				<path class="st0" d="M50.8,100h2.7c2.3,0,3.3,0.9,3.3,3c0,2.1-1.1,3.2-3.3,3.2H52v4.5h-1.2V100z M53.6,105
					c1.4,0,2.1-0.7,2.1-2.1c0-1.4-0.7-1.9-2.2-1.9H52v4H53.6z"/>
				<path class="st0" d="M60.9,100h3c2.2,0,3.3,0.9,3.3,2.7c0,1.4-0.6,2.3-2,2.6c1.2,0.1,1.7,0.7,1.9,2.1c0.2,1.6,0,2.7,0.6,3.2
					h-1.5c-0.3-0.5-0.2-1.5-0.4-2.8c-0.1-1.5-0.7-1.9-2.3-1.9H62v4.7h-1.2V100z M63.5,104.8c1.6,0,2.4-0.6,2.4-2
					c0-1.3-0.7-1.8-2.2-1.8H62v3.8H63.5z"/>
				<path class="st0" d="M71.7,100h1.2v10.6h-1.2V100z"/>
				<path class="st0" d="M78.2,107.2c0,0.2,0,0.3,0,0.4c0,1.4,0.7,2.2,2,2.2c1.2,0,1.9-0.7,1.9-2c0-1.2-0.6-1.5-1.7-2
					c-1.1-0.4-1.9-0.7-2.3-1c-0.6-0.5-0.9-1.2-0.9-2.2c0-1.8,1.1-2.9,2.9-2.9c1.7,0,2.8,1,2.8,2.7c0,0.1,0,0.2,0,0.3h-1.1
					c0,0,0-0.1,0-0.1c0-1.2-0.6-1.9-1.7-1.9c-1.1,0-1.8,0.7-1.8,1.7c0,1.2,0.6,1.6,1.7,2c1.2,0.4,2,0.7,2.4,1.1
					c0.5,0.5,0.8,1.2,0.8,2.1c0,2-1.2,3.2-3.2,3.2c-2,0-3-1.1-3-3.3c0-0.1,0-0.2,0-0.4H78.2z"/>
				<path class="st0" d="M87.5,100h5.3v1.1h-4.1v3.4h3.8v1.1h-3.8v3.9h4.1v1.1h-5.3V100z"/>
				<path class="st0" d="M108.6,109.1c-0.4,1.1-1.2,1.7-2.4,1.7c-2.3,0-3.3-1.8-3.3-5.6c0-3.7,1-5.5,3.6-5.5c1.9,0,3.1,1.2,3.1,3.3
					h-1.2c0-1.5-0.8-2.3-2-2.3c-1.8,0-2.3,1.5-2.3,4.8c0,2.8,0.7,4.2,2.3,4.2c1.4,0,2.1-1.1,2.1-3.1c0-0.2,0-0.3,0-0.5H106V105h3.5
					v5.5h-0.9L108.6,109.1z"/>
				<path class="st0" d="M113.9,100h5.3v1.1h-4.1v3.4h3.8v1.1h-3.8v3.9h4.1v1.1h-5.3V100z M117,97.1h1.2l-1.7,1.9h-0.7L117,97.1z"/>
				<path class="st0" d="M123.4,100h1.6l3.7,9.1l-0.1-9.1h1.1v10.6h-1.5l-3.7-9.4l0.1,9.4h-1.1V100z"/>
				<path class="st0" d="M134.2,100h5.3v1.1h-4.1v3.4h3.8v1.1h-3.8v3.9h4.1v1.1h-5.3V100z M137.2,97.1h1.2l-1.7,1.9h-0.7L137.2,97.1
					z"/>
				<path class="st0" d="M143.6,100h3c2.2,0,3.3,0.9,3.3,2.7c0,1.4-0.6,2.3-2,2.6c1.2,0.1,1.7,0.7,1.9,2.1c0.2,1.6,0,2.7,0.6,3.2
					h-1.5c-0.3-0.5-0.2-1.5-0.4-2.8c-0.1-1.5-0.7-1.9-2.3-1.9h-1.5v4.7h-1.2V100z M146.2,104.8c1.6,0,2.4-0.6,2.4-2
					c0-1.3-0.7-1.8-2.2-1.8h-1.7v3.8H146.2z"/>
				<path class="st0" d="M156.3,100h1.5l2.9,10.6h-1.2l-0.8-3.1h-3.4l-0.8,3.1h-1.2L156.3,100z M158.5,106.4l-1.4-5.6l-1.4,5.6
					H158.5z"/>
				<path class="st0" d="M164.5,100h1.2v9.5h4.2v1.1h-5.4V100z"/>
				<path class="st0" d="M173.8,100h5.3v1.1H175v3.4h3.8v1.1H175v3.9h4.1v1.1h-5.3V100z"/>
			</g>
		</g>
	</g>
	<g>
		<g>
			<polygon class="st1" points="39.2,43.3 75.1,7 0,7 0,43.3 			"/>
		</g>
		<g>
			<polygon class="st1" points="140.8,43.3 104.9,7 180,7 180,43.3 			"/>
		</g>
		<polygon class="st2" points="123.1,54.3 133.7,43.7 90.1,0 46.4,43.7 57.1,54.3 90.1,21.4 		"/>
	</g>
</g>
</svg>
